<svg width="37" height="50" viewBox="0 0 37 50" fill="none" xmlns="http://www.w3.org/2000/svg">
<path fill-rule="evenodd" clip-rule="evenodd" d="M17.8768 0.00133099C19.0392 -0.00843628 19.381 0.0306328 20.5043 0.284582C21.2174 0.450626 22.2137 0.753411 22.7021 0.968291C23.2002 1.18317 23.9035 1.53479 24.2649 1.75944C24.6361 1.97432 25.144 2.32594 25.4175 2.53105C25.6813 2.73617 26.1892 3.18546 26.5311 3.52732C26.8729 3.86917 27.4199 4.49428 27.7423 4.92404C28.0548 5.3538 28.5139 6.09611 28.7386 6.58447C28.973 7.07284 29.2563 7.74678 29.3735 8.0984C29.4809 8.45002 29.6568 9.16303 29.7642 9.69047C29.9205 10.4328 29.9596 11.0383 29.9596 12.4448C29.9596 14.2127 29.9693 14.2615 30.2233 14.7694C30.3796 15.0722 30.5066 15.4922 30.5261 15.8145C30.5554 16.1759 30.5163 16.5276 30.3893 16.8889C30.2721 17.2308 30.0475 17.602 29.7544 17.9145C29.5102 18.188 29.0707 18.5201 28.7777 18.6666C28.4846 18.8229 28.1721 18.9401 28.0744 18.9401C27.9865 18.9401 27.8693 19.0182 27.8204 19.1159C27.7813 19.2038 27.713 19.6335 27.6837 20.0633C27.6544 20.4931 27.5372 21.1963 27.4199 21.6261C27.3125 22.0558 27.0585 22.7591 26.8632 23.1888C26.658 23.6186 26.3259 24.2339 26.1111 24.5563C25.8962 24.8786 25.3785 25.4939 24.9682 25.9237C24.5384 26.3632 23.8547 26.9395 22.5458 27.7795L22.536 28.9515L24.5384 30.3092L27.5176 31.1785C29.1586 31.6571 30.8289 32.204 31.2294 32.3896C31.7666 32.6338 32.1182 32.8877 32.548 33.337C32.8704 33.6691 33.2513 34.177 33.3978 34.47C33.5541 34.7631 33.7788 35.4858 33.9155 36.0816C34.0523 36.6774 34.189 37.3807 34.2183 37.6444C34.2672 38.0351 34.2379 38.1816 34.1011 38.3672C33.9741 38.5137 33.8081 38.6016 33.603 38.6114C33.4076 38.6211 33.2122 38.543 33.0853 38.4258C32.9387 38.289 32.802 37.8495 32.5969 36.863C32.4015 35.9742 32.2159 35.3393 32.0401 35.0561C31.9034 34.8119 31.6299 34.4603 31.4345 34.2747C31.2391 34.0891 30.8875 33.8352 30.6433 33.718C30.3991 33.6007 29.0023 33.1515 27.5371 32.7217C26.0817 32.2822 24.8119 31.9305 24.7338 31.9305C24.6556 31.9305 24.5873 31.9403 24.5873 31.9501C24.5873 31.9696 24.2747 32.8389 23.9035 33.884C23.5226 34.9291 23.1514 35.8863 23.0733 36.0133C22.9951 36.1305 22.7216 36.3258 22.4579 36.4333C22.0672 36.6091 21.9402 36.6286 21.6081 36.5407C21.3932 36.4821 20.6313 36.2184 18.6289 35.4468V38.6211C18.6289 40.3695 18.5898 41.8736 18.541 41.9713C18.5019 42.0592 18.3359 42.1959 18.1796 42.2643C17.9452 42.3815 17.8475 42.3718 17.6033 42.2546C17.4372 42.1764 17.281 42.0397 17.2321 41.9518C17.1931 41.8639 17.1637 40.389 17.1637 38.67C17.1637 36.9509 17.1442 35.5444 17.1149 35.5444C17.0856 35.5444 16.4409 35.7886 15.6693 36.0914C14.6339 36.5016 14.2041 36.6188 13.9892 36.5798C13.8232 36.5505 13.5497 36.4333 13.3738 36.3258C13.2078 36.2184 13.0027 36.0133 12.9245 35.8668C12.8562 35.7105 12.4947 34.7533 12.1236 33.718C11.7524 32.6924 11.4007 31.8622 11.3519 31.8915C11.2933 31.911 10.043 32.2822 8.56809 32.7119C6.96617 33.1808 5.64752 33.6301 5.30564 33.8156C4.99307 33.9914 4.60236 34.2845 4.43631 34.47C4.27026 34.6556 4.03583 35.0365 3.91862 35.3003C3.7721 35.6128 3.29348 37.7909 2.59996 41.2583C1.98459 44.3447 1.51574 46.9624 1.51574 47.2652C1.51574 47.6461 1.57434 47.8707 1.71109 48.0465C1.80877 48.1833 2.0432 48.3396 2.22879 48.4079C2.44368 48.4861 3.29348 48.5251 6.71221 48.5349L6.76105 41.2876L7.00524 41.102C7.14199 40.9946 7.35688 40.9067 7.49363 40.9164C7.63038 40.9164 7.8355 41.0141 8.18714 41.356L8.17738 48.5349H9.61324C10.59 48.5447 11.1077 48.5837 11.2249 48.6619C11.3128 48.7303 11.4301 48.8865 11.4789 49.0233C11.5375 49.1795 11.5375 49.3554 11.4789 49.5116C11.4203 49.6484 11.3128 49.8047 11.2249 49.873C11.0979 49.9609 9.95511 49.9902 2.21902 50L1.60365 49.7167C1.27154 49.5702 0.880831 49.3163 0.734314 49.16C0.587797 49.0037 0.372905 48.6619 0.255692 48.3884C0.138478 48.1247 0.0310325 47.7047 0.00172911 47.4605C-0.0275743 47.148 0.314299 45.2629 1.12503 41.1606C2.12134 36.15 2.33623 35.2026 2.60973 34.6165C2.82462 34.1575 3.13719 33.7375 3.5279 33.337C3.86001 33.0049 4.38747 32.6045 4.70981 32.4482C5.03214 32.2822 6.72197 31.7254 11.6449 30.2701L13.5594 28.9515L13.5497 27.7795L12.8366 27.3399C12.4557 27.1055 11.7622 26.5488 11.3128 26.119C10.8635 25.6893 10.2677 24.986 9.98442 24.5563C9.70115 24.1265 9.31044 23.4037 9.12485 22.9447C8.9295 22.4856 8.6853 21.6651 8.57786 21.1182C8.46064 20.5614 8.37273 19.868 8.37273 19.0377L8.00156 18.9401C7.8062 18.8912 7.42526 18.7252 7.16152 18.5787C6.89779 18.4322 6.50708 18.1099 6.30196 17.8657C6.08707 17.6215 5.8331 17.182 5.72566 16.8889C5.57914 16.4983 5.5303 16.2052 5.55961 15.8145C5.58891 15.502 5.71589 15.0722 5.86241 14.789C6.1066 14.3202 6.11637 14.2225 6.15544 12.2007C6.19451 10.3742 6.23358 9.97372 6.44848 9.12396C6.58522 8.58676 6.80988 7.88352 6.94663 7.5612C7.09315 7.23888 7.27874 6.91656 7.37642 6.84819C7.46433 6.77982 7.64991 6.73098 7.78666 6.73098C7.92341 6.73098 8.12854 6.81889 8.24575 6.92633C8.37273 7.03377 8.47041 7.22911 8.47041 7.36585C8.47041 7.5026 8.31413 8.05933 8.12854 8.61607C7.94295 9.1728 7.74759 9.99325 7.68899 10.4914C7.64015 10.9797 7.59131 11.7807 7.59131 13.1774L7.85504 13.1285C8.01132 13.0992 8.34343 13.0504 8.60716 13.0113C8.94903 12.9527 9.19323 12.8355 9.46673 12.5913C9.68162 12.4058 9.96488 12.0151 10.0919 11.7416C10.2188 11.4583 10.3556 10.97 10.3849 10.6672C10.4142 10.3546 10.4923 9.94441 10.551 9.75884C10.6096 9.57326 10.8147 9.25094 11.0003 9.04583C11.2347 8.79188 11.5082 8.62583 11.8403 8.52816C12.2701 8.40119 12.4654 8.40119 13.452 8.52816C14.0674 8.61607 15.2981 8.72351 16.187 8.79188C17.1247 8.86025 18.414 8.87978 19.2638 8.84071C20.0648 8.80164 21.2369 8.70397 21.8523 8.62583C22.4677 8.54769 23.2589 8.47932 23.6105 8.46956C24.011 8.46956 24.3528 8.51839 24.5384 8.61607C24.6947 8.6942 24.9389 8.88955 25.0854 9.04583C25.2222 9.19233 25.3785 9.38768 25.4468 9.46582C25.5054 9.54396 25.6227 10.003 25.691 10.4914C25.7887 11.0774 25.9255 11.5462 26.1111 11.8979C26.2673 12.1811 26.5506 12.5425 26.7362 12.689C26.9413 12.8453 27.2637 12.982 27.5176 13.0113C27.7618 13.0504 28.0744 13.0992 28.4944 13.1774V12.0053C28.4944 11.2044 28.426 10.5109 28.2893 9.83697C28.1818 9.28024 27.9572 8.49886 27.8009 8.0984C27.6446 7.69794 27.3223 7.03377 27.0878 6.63331C26.8534 6.23285 26.3748 5.56868 26.0329 5.16822C25.6813 4.76776 25.105 4.20126 24.7533 3.92777C24.3919 3.64452 23.8254 3.24407 23.4835 3.03895C23.1514 2.83384 22.6142 2.55059 22.2918 2.41385C21.9695 2.26734 21.3053 2.04269 20.8267 1.89618C20.3481 1.75944 19.4885 1.60316 18.922 1.55433C18.3554 1.49572 17.5642 1.48596 17.1637 1.51526C16.7633 1.54456 16.0795 1.652 15.6497 1.74967C15.22 1.85711 14.5167 2.06223 14.0869 2.22827C13.6571 2.39431 12.905 2.785 12.4264 3.09756C11.9477 3.41011 11.1761 4.02545 10.717 4.46497C10.1407 5.01194 9.8086 5.25612 9.64255 5.26589C9.5058 5.26589 9.31044 5.20729 9.20299 5.13892C9.09555 5.06078 8.97834 4.88497 8.9295 4.74823C8.89042 4.58218 8.90996 4.38684 8.99787 4.22079C9.06625 4.06452 9.45696 3.63476 9.84767 3.2636C10.2481 2.88268 10.8538 2.37478 11.2054 2.12083C11.557 1.86688 12.2408 1.46642 12.7194 1.23201C13.198 0.997593 13.8818 0.704575 14.2334 0.587367C14.5851 0.479927 15.2395 0.294349 15.6986 0.196676C16.2651 0.0697019 16.9489 0.0110983 17.867 0.00133099H17.8768ZM11.811 10.9797C11.7426 11.4876 11.5863 11.9955 11.3714 12.4448C11.137 12.9332 10.8733 13.2751 10.4435 13.6657L9.85744 14.2029C9.84767 19.5066 9.87697 20.2684 10.004 20.874C10.0919 21.2842 10.3068 21.9582 10.4728 22.3586C10.6486 22.7591 10.9612 23.3549 11.1663 23.6772C11.3812 23.9898 11.7719 24.4977 12.0454 24.7809C12.3092 25.0739 12.7975 25.5134 13.1199 25.7479C13.4422 25.992 13.9599 26.3144 14.2627 26.4706C14.5753 26.6269 15.1516 26.8613 15.5325 26.9883C15.9232 27.1153 16.6461 27.2716 17.1247 27.3399C17.6424 27.4083 18.2773 27.4376 18.6875 27.3985C19.0685 27.3595 19.635 27.2618 19.9573 27.1837C20.2797 27.1055 20.7876 26.9492 21.0806 26.832C21.3737 26.7148 21.9207 26.4413 22.2918 26.2265C22.6533 26.0018 23.2296 25.5818 23.5617 25.279C23.884 24.986 24.3724 24.4586 24.6361 24.107C24.8998 23.7651 25.2808 23.1302 25.4859 22.7005C25.691 22.2707 25.9255 21.6554 26.0134 21.3331C26.1013 21.0107 26.2087 20.327 26.2576 19.8191C26.3064 19.3112 26.3455 17.8559 26.3455 16.5959V14.3006C25.2222 13.2458 24.9194 12.8551 24.7533 12.4937C24.6166 12.2007 24.4603 11.7611 24.4115 11.5169C24.3528 11.2728 24.2845 10.8723 24.2552 10.6086C24.2161 10.2765 24.1477 10.1105 23.9817 10.003C23.7961 9.87604 23.6105 9.87604 22.497 10.0128C21.8035 10.0909 20.4164 10.1984 19.4201 10.2472C18.3457 10.296 17.0172 10.296 16.1479 10.2472C15.3372 10.1984 14.2822 10.1105 13.8036 10.0519C13.325 9.99325 12.7878 9.92488 12.6315 9.89558C12.4264 9.85651 12.2701 9.89558 12.1333 10.0226C11.977 10.1495 11.8989 10.4035 11.811 10.9797ZM7.22013 15.4727C7.05408 15.8243 7.00524 16.049 7.05408 16.2834C7.08338 16.4494 7.2299 16.7327 7.37642 16.8987C7.5327 17.0745 7.76713 17.2699 7.91364 17.3382C8.06993 17.4164 8.22621 17.475 8.28482 17.475C8.34343 17.475 8.3825 16.9182 8.3825 16.0099C8.3825 15.1992 8.3532 14.5448 8.30436 14.5448C8.26529 14.5448 8.06016 14.6425 7.84527 14.7694C7.562 14.9257 7.38618 15.1211 7.22013 15.4727ZM27.8302 16.0001C27.8302 16.8108 27.8497 17.475 27.8888 17.475C27.9376 17.475 28.1135 17.3773 28.299 17.2601C28.4846 17.1331 28.7288 16.9085 28.8363 16.762C28.9828 16.5666 29.0414 16.342 29.0414 16.0099C29.0414 15.6778 28.9828 15.4532 28.8363 15.2578C28.7288 15.1113 28.4553 14.8867 28.2404 14.7597L27.84 14.535L27.8302 16.0001ZM16.353 30.9929C17.0856 32.0185 17.7303 32.9268 17.7987 33.0245C17.8963 33.171 18.1112 32.9366 19.4983 31.1687C20.9048 29.3715 21.0806 29.098 21.0806 28.7757C21.0806 28.5706 21.0709 28.4046 21.0611 28.4046C21.0416 28.4046 20.7876 28.4729 20.4946 28.5511C20.2015 28.639 19.5178 28.7464 18.9806 28.805C18.2968 28.8734 17.7303 28.8734 17.0758 28.7952C16.5679 28.7464 15.933 28.6292 15.6595 28.5511C15.3958 28.4729 15.1418 28.4046 15.1027 28.4046C15.0637 28.4046 15.0246 28.5706 15.0246 28.7757C15.0246 29.0883 15.22 29.4008 16.353 30.9929ZM12.8757 31.2859C12.8757 31.3445 13.1687 32.204 13.5204 33.1905C13.8818 34.1868 14.1846 35.0268 14.2139 35.0463C14.2334 35.0756 14.7999 34.8803 15.4642 34.6068C16.1381 34.3431 16.6851 34.0891 16.6851 34.05C16.6851 34.011 16.1284 33.1905 15.4544 32.2431C14.7706 31.2859 14.1846 30.4752 14.1553 30.4362C14.1162 30.3971 13.8232 30.5534 13.4911 30.778C13.159 31.0027 12.8855 31.2371 12.8757 31.2859ZM19.1955 34.0598C19.2052 34.0891 19.8108 34.3431 20.5336 34.6068C21.2662 34.8803 21.8816 35.0756 21.9109 35.0463C21.9304 35.0268 22.2625 34.1575 22.6435 33.1222L23.3272 31.2371C22.4579 30.6608 22.1551 30.4655 22.0965 30.4264C22.0281 30.3873 21.4225 31.0906 20.5825 32.1845C19.8108 33.1808 19.1857 34.0207 19.1955 34.0598ZM34.2183 40.516C34.3551 40.516 34.57 40.6136 34.6872 40.7406C34.8825 40.9262 35.0095 41.4243 35.5174 43.9834C35.8593 45.6536 36.1328 47.0991 36.1328 47.2066C36.1328 47.314 36.0449 47.7047 35.9277 48.0661C35.8105 48.4665 35.6151 48.8572 35.4198 49.0819C35.2439 49.2772 34.8337 49.5605 33.8764 49.9902H13.999L13.7743 49.7753C13.6376 49.6288 13.5594 49.4433 13.5594 49.2382C13.5594 49.0037 13.6376 48.867 13.8329 48.7205C14.0967 48.5251 14.2139 48.5251 27.9181 48.5251V44.9894C27.9181 41.5806 27.9181 41.4341 28.1134 41.1801C28.26 40.975 28.3967 40.9067 28.6507 40.9067C28.9144 40.9067 29.0414 40.975 29.1977 41.1801C29.3833 41.4341 29.393 41.5806 29.3833 48.5251H31.415C32.5285 48.5251 33.603 48.4861 33.8081 48.4275C34.0523 48.3591 34.2379 48.2321 34.3648 48.0172C34.5016 47.8024 34.5602 47.5289 34.5602 47.1577C34.5602 46.8647 34.316 45.4191 34.023 43.9345C33.7299 42.4597 33.4857 41.1899 33.4955 41.1215C33.4955 41.0532 33.603 40.8871 33.7299 40.7602C33.8569 40.6234 34.0816 40.516 34.2183 40.516Z" fill="white"/>
</svg>
