<svg width="50" height="50" viewBox="0 0 50 50" fill="none" xmlns="http://www.w3.org/2000/svg">
<path fill-rule="evenodd" clip-rule="evenodd" d="M21.9141 0H28.0762L28.3691 1.38672C28.5254 2.14844 28.7012 2.82227 28.7598 2.88086C28.8184 2.94922 29.1016 3.07617 29.3945 3.16406C29.6875 3.26172 30.3418 3.52539 31.7383 4.19922L34.2285 2.54883L38.5254 6.82617L37.5977 8.88672H38.0078C38.2422 8.88672 38.6719 8.92578 38.9648 8.98438C39.2578 9.0332 39.873 9.26758 40.332 9.49219C40.9375 9.78516 41.3379 10.0781 41.8066 10.5371C42.2656 11.0059 42.5586 11.416 42.8516 12.0117C43.0762 12.4707 43.3301 13.1738 43.418 13.5742C43.5352 14.1309 43.5645 14.668 43.5254 15.7715C43.4961 16.6699 43.418 17.4023 43.3301 17.6758C43.252 17.9199 43.0469 18.3984 42.8711 18.75C42.666 19.1504 42.2852 19.6484 41.8262 20.1172C41.4258 20.5176 41.1035 20.918 41.1035 20.9961C41.1133 21.1035 41.5723 21.2598 42.8418 21.5723C43.7988 21.8066 44.7754 22.0801 45.459 22.3828L48.1445 20.9961H50V32.7637L35.498 40.0098L35.4395 40.5371C35.4004 40.8301 35.3027 41.2109 35.2148 41.377C35.127 41.5527 34.8926 41.8555 34.6875 42.041C34.4922 42.2363 34.1504 42.4512 33.9355 42.5293C33.7207 42.5977 33.4277 42.6855 33.2715 42.7148C33.0664 42.7637 33.0078 42.832 33.0078 43.0371C33.0078 43.1934 32.9199 43.4863 32.8223 43.7012C32.7246 43.916 32.5 44.2383 32.3145 44.4238C32.1289 44.6094 31.8066 44.834 31.5918 44.9316C31.377 45.0293 31.084 45.1172 30.9277 45.1172C30.6934 45.1172 30.6543 45.166 30.5859 45.5273C30.5469 45.7617 30.4004 46.1426 30.2539 46.3867C30.1074 46.6504 29.8145 46.9531 29.5312 47.1484C29.2676 47.3145 28.877 47.4902 28.6621 47.5195C28.291 47.5684 28.2617 47.5977 28.1641 48.0273C28.1055 48.2812 27.9297 48.6816 27.7734 48.9062C27.6172 49.1406 27.4023 49.3945 27.2949 49.4629C27.1875 49.5312 26.9336 49.6777 26.7285 49.7949C26.4648 49.9414 26.2012 50 25.7324 50C25.2539 50 24.9805 49.9414 24.6289 49.7656C24.375 49.6387 23.9746 49.3555 23.291 48.75L22.9004 48.9551C22.627 49.0918 22.3242 49.1602 21.875 49.1602C21.3477 49.1602 21.1523 49.1113 20.7031 48.8672C20.4102 48.7012 20.0391 48.3887 19.8926 48.1836C19.7363 47.9785 19.5605 47.5781 19.4922 47.3145C19.3652 46.8457 19.3457 46.8262 18.8672 46.6797C18.5938 46.6016 18.1836 46.3965 17.9492 46.2402C17.6758 46.0449 17.4316 45.752 17.2559 45.4102C17.1094 45.1172 16.9922 44.7656 16.9922 44.6289C16.9922 44.4141 16.9336 44.3652 16.4844 44.2578C16.2012 44.1992 15.791 44.0137 15.5762 43.8574C15.3613 43.7012 15.0586 43.3887 14.9121 43.1543C14.7656 42.9199 14.6191 42.5488 14.5898 42.334C14.541 41.9727 14.5117 41.9434 14.1797 41.8848C13.9844 41.8555 13.6133 41.709 13.3496 41.5723C13.0859 41.416 12.7734 41.123 12.5977 40.8691C12.4316 40.625 12.2461 40.2148 12.1777 39.9512C12.0605 39.4727 12.0508 39.4629 10.9375 38.7988C10.3223 38.4375 9.77539 38.1348 9.72656 38.1348C9.66797 38.1348 9.59961 38.2422 9.57031 38.3789C9.51172 38.6133 9.48242 38.623 7.86133 38.6719L0.0488281 36.0645L0 19.3359L2.58789 19.3262L6.68945 21.6992L7.79297 21.4258C8.57422 21.2207 8.88672 21.1035 8.89648 20.9961C8.89648 20.918 8.57422 20.5176 8.17383 20.1172C7.71484 19.6484 7.33398 19.1504 7.12891 18.75C6.95312 18.3984 6.74805 17.9199 6.66992 17.6758C6.57227 17.3926 6.50391 16.6699 6.47461 15.6738C6.43555 14.4629 6.46484 13.9453 6.58203 13.3789C6.66992 12.9785 6.8457 12.4316 6.97266 12.1582C7.09961 11.8945 7.40234 11.4062 7.64648 11.084C7.89063 10.7617 8.33008 10.3223 8.61328 10.0977C8.89648 9.87305 9.28711 9.61914 9.47266 9.52148C9.6582 9.42383 10.0586 9.26758 10.3516 9.16016C10.6445 9.0625 11.2109 8.94531 11.6016 8.90625C11.9922 8.86719 12.3047 8.80859 12.3047 8.76953C12.3047 8.7207 12.1191 8.27148 11.4746 6.82617L15.7715 2.54883L18.2617 4.19922L19.1602 3.76953C19.6582 3.52539 20.3125 3.26172 20.6055 3.16406C20.8984 3.07617 21.1816 2.94922 21.2402 2.88086C21.2988 2.82227 21.4648 2.14844 21.6211 1.38672L21.9141 0ZM22.9102 3.125C22.7734 3.74023 22.6562 4.24805 22.6367 4.25781C22.627 4.25781 22.1777 4.38477 21.6406 4.54102C21.1035 4.69727 20.1074 5.09766 19.4434 5.42969C18.418 5.94727 18.1836 6.02539 18.0273 5.9375C17.9199 5.87891 17.4414 5.56641 16.9727 5.25391C16.5039 4.94141 16.0645 4.6875 15.9961 4.6875C15.9277 4.6875 15.332 5.22461 14.6777 5.87891C14.0234 6.54297 13.4863 7.14844 13.4766 7.22656C13.4766 7.30469 13.6621 7.80273 13.8965 8.33984C14.2871 9.25781 14.3457 9.32617 14.8633 9.6582C15.166 9.85352 15.5762 10.1367 15.7813 10.3027C16.1328 10.5859 16.1426 10.5859 16.25 10.4004C16.3086 10.293 16.6211 9.87305 16.9434 9.48242C17.2656 9.08203 17.8223 8.51562 18.1738 8.21289C18.5156 7.91992 19.0234 7.53906 19.2969 7.37305C19.5605 7.19727 20.0879 6.9043 20.4688 6.71875C20.8398 6.52344 21.4355 6.2793 21.7871 6.17188C22.1289 6.05469 22.8125 5.88867 23.3008 5.81055C23.7793 5.73242 24.5508 5.66406 25.0098 5.66406C25.459 5.66406 26.2305 5.73242 26.7188 5.81055C27.1973 5.88867 27.8809 6.05469 28.2324 6.17188C28.5742 6.2793 29.1602 6.52344 29.5215 6.69922C29.8828 6.88477 30.4102 7.17773 30.6934 7.35352C30.9766 7.53906 31.4941 7.92969 31.8457 8.22266C32.1875 8.51562 32.7441 9.08203 33.0664 9.48242C33.3887 9.87305 33.7012 10.293 33.7598 10.4004C33.8672 10.5859 33.8867 10.5762 34.3457 10.1953C34.6094 9.9707 35.0195 9.6875 35.2539 9.56055C35.6445 9.3457 35.7129 9.24805 36.1035 8.34961C36.3379 7.8125 36.5234 7.30469 36.5234 7.22656C36.5332 7.14844 35.9961 6.54297 35.332 5.87891C34.6777 5.22461 34.082 4.6875 34.0137 4.6875C33.9453 4.6875 33.5059 4.94141 33.0371 5.25391C32.5684 5.56641 32.0996 5.87891 31.9922 5.9375C31.8262 6.02539 31.5918 5.94727 30.5762 5.42969C29.9023 5.09766 28.916 4.69727 28.3789 4.54102C27.8418 4.38477 27.373 4.23828 27.3535 4.21875C27.3242 4.19922 27.1875 3.62305 27.0508 2.93945L26.7969 1.70898C23.4082 1.66016 23.2617 1.66992 23.2129 1.82617C23.1836 1.92383 23.0469 2.50977 22.9102 3.125ZM22.7637 7.56836C22.4121 7.65625 21.7773 7.89062 21.3477 8.0957C20.918 8.29102 20.3613 8.59375 20.127 8.75C19.8828 8.91602 19.4336 9.26758 19.1309 9.53125C18.8281 9.79492 18.3887 10.2441 18.1543 10.5371C17.9199 10.8301 17.5977 11.2891 17.4414 11.5527L17.1484 12.041C17.7051 13.6719 17.7148 13.8086 17.7246 15.332C17.7246 16.582 17.6855 17.0801 17.5488 17.5781C17.4609 17.9297 17.2168 18.4961 17.0215 18.8477C16.8359 19.1992 16.3672 19.7754 16.0059 20.1367C15.6348 20.498 15.3418 20.8789 15.3418 20.9668C15.3418 21.1133 15.6348 21.2109 16.9238 21.543L18.5156 21.9434C21.4844 21.2109 21.7871 21.1133 21.7871 20.9668C21.7871 20.8789 21.5137 20.5371 21.1719 20.2246C20.8398 19.9121 20.4004 19.375 20.1953 19.0332C19.9902 18.6914 19.7266 18.0957 19.6094 17.7246C19.4141 17.1191 19.3945 16.8262 19.3945 15.2832C19.3945 13.6719 19.4141 13.4668 19.6289 12.793C19.7656 12.3926 20.0293 11.8164 20.2246 11.5234C20.4199 11.2305 20.7617 10.8008 20.9863 10.5664C21.2109 10.3418 21.6699 9.98047 22.002 9.76562C22.3438 9.55078 22.8809 9.27734 23.2031 9.16992C23.5352 9.05273 24.1602 8.94531 24.668 8.91602C25.293 8.87695 25.7324 8.91602 26.2305 9.02344C26.6016 9.12109 27.2168 9.35547 27.5879 9.55078C27.998 9.76562 28.5352 10.166 28.9062 10.5469C29.2969 10.9277 29.6875 11.4551 29.9023 11.8652C30.0977 12.2363 30.3418 12.8125 30.4395 13.1348C30.5859 13.6035 30.625 14.043 30.625 15.3809C30.625 16.8262 30.5957 17.1289 30.4004 17.7246C30.2832 18.0957 30.0195 18.6914 29.8145 19.0332C29.6191 19.375 29.1797 19.9121 28.8379 20.2246C28.5059 20.5371 28.2324 20.8789 28.2324 20.9668C28.2324 21.1133 28.5254 21.2109 29.8633 21.543L31.5039 21.9434C34.3848 21.2109 34.6777 21.1133 34.6777 20.9668C34.6777 20.8789 34.375 20.498 34.0039 20.1367C33.6426 19.7754 33.1836 19.1992 32.9883 18.8477C32.793 18.4961 32.5586 17.9297 32.4609 17.5781C32.3242 17.0898 32.2852 16.5625 32.2852 15.2832C32.2852 13.7109 32.2949 13.5742 32.5586 12.793L32.8418 11.9629C32.4121 11.2793 32.1094 10.8594 31.8945 10.5859C31.6797 10.3125 31.2598 9.87305 30.9668 9.59961C30.6641 9.33594 30.2246 8.98438 29.9902 8.81836C29.7461 8.65234 29.2871 8.38867 28.9648 8.23242C28.6426 8.06641 28.1152 7.8418 27.793 7.73437C27.4707 7.62695 26.9629 7.49023 26.6699 7.44141C26.3672 7.38281 25.8203 7.31445 25.4492 7.29492C25.0684 7.26562 24.4531 7.28516 24.082 7.32422C23.7012 7.36328 23.1055 7.4707 22.7637 7.56836ZM10.4102 10.8691C10.1367 10.9961 9.69727 11.2988 9.43359 11.543C9.16016 11.7773 8.82812 12.168 8.69141 12.4121C8.54492 12.6465 8.34961 13.0859 8.26172 13.3789C8.11523 13.8281 8.0957 14.1895 8.125 15.5273C8.16406 17.0801 8.17383 17.1582 8.45703 17.7734C8.62305 18.125 8.93555 18.5938 9.14062 18.8281C9.35547 19.0625 9.73633 19.3848 9.99023 19.541L10.459 19.8242V22.4121C9.22852 22.7148 8.86719 22.8418 8.85742 22.8809C8.84766 22.9297 9.75586 23.5059 10.8789 24.1504L12.9102 25.3418C12.8613 26.6699 12.8711 27.0508 12.9004 27.041C12.9199 27.041 13.4766 26.9238 14.1211 26.7773L15.293 26.5039C15.3223 25.8301 15.3809 25.3906 15.4492 25.0977C15.5078 24.8047 15.6445 24.3848 15.752 24.1699C15.8594 23.9551 16.0547 23.6328 16.1816 23.457C16.3086 23.2812 16.4062 23.125 16.3867 23.1055C16.377 23.0762 15.7715 22.9102 15.0488 22.7246L13.7305 22.4023L13.6719 19.873C14.3164 19.502 14.707 19.1895 14.9512 18.9453C15.1953 18.7012 15.5469 18.1934 15.7324 17.8223L16.0742 17.1387C16.0645 13.8477 16.0547 13.6719 15.8301 13.1348C15.7031 12.8125 15.4102 12.3242 15.1953 12.0605C14.9707 11.7871 14.6191 11.4355 14.4043 11.2695C14.1895 11.1133 13.7793 10.8887 13.4863 10.7715C13.1836 10.6641 12.7441 10.5469 12.5098 10.5273C12.2656 10.498 11.8066 10.5176 11.4844 10.5664C11.1621 10.6055 10.6738 10.752 10.4102 10.8691ZM23.3008 10.8691C23.0273 10.9961 22.5781 11.3184 22.2852 11.582C21.9238 11.9141 21.6504 12.2852 21.4062 12.7832L21.0547 13.5156V17.1387C21.5137 18.125 21.8262 18.5938 22.0312 18.8281C22.2461 19.0625 22.627 19.3848 22.8809 19.541L23.3496 19.8242V22.4121C19.7559 23.3008 18.5059 23.6621 18.2715 23.7793C18.0273 23.8965 17.7051 24.1406 17.5488 24.3262C17.3926 24.5117 17.2168 24.7852 17.1484 24.9512C17.0801 25.1074 17.002 25.4395 16.9629 25.6836L16.8848 26.123C17.6172 26.0059 18.291 25.9277 18.8574 25.8789C19.5117 25.8203 20.1562 25.8203 20.6641 25.8887C21.0938 25.9375 21.6211 26.0254 21.8359 26.084C22.0508 26.1328 23.125 26.4648 24.2285 26.8066C25.3223 27.1484 26.4453 27.4512 26.7188 27.4902C26.9824 27.5293 28.3691 27.8906 29.7949 28.291C31.416 28.75 32.5098 29.0039 32.7246 28.9844L33.0664 28.9551C33.0469 25.7324 33.0176 25.2637 32.8906 25C32.8125 24.8145 32.6172 24.5117 32.4609 24.3262C32.3145 24.1406 31.9824 23.8965 31.748 23.7793C31.5039 23.6621 30.2637 23.3008 28.9844 22.9883L26.6699 22.4121L26.6602 19.873C27.4609 19.3359 27.8516 18.9844 28.0469 18.7402C28.252 18.5059 28.5352 18.0469 28.6816 17.7246C28.9355 17.1777 28.9648 17.0312 28.9941 15.7227C29.0137 14.834 28.9844 14.1016 28.9062 13.7695C28.8477 13.4766 28.6816 13.0078 28.5449 12.7441C28.4082 12.4707 28.0957 12.041 27.8418 11.7773C27.5977 11.5234 27.2266 11.2012 27.0117 11.0742C26.7969 10.9473 26.4453 10.791 26.2305 10.7129C26.0156 10.6348 25.6348 10.5566 25.4004 10.5273C25.1562 10.498 24.6973 10.5176 24.375 10.5664C24.0527 10.6055 23.5645 10.752 23.3008 10.8691ZM36.1426 10.9082C35.8398 11.0547 35.3809 11.3965 35.1074 11.6699C34.834 11.9336 34.4922 12.373 34.3555 12.6465C34.2188 12.9102 34.0527 13.3789 33.9941 13.6719C33.916 14.0137 33.8867 14.7266 33.9062 15.6738C33.9453 17.0996 33.9551 17.1582 34.2773 17.8223C34.4629 18.1934 34.8145 18.7012 35.0586 18.9453C35.3027 19.1895 35.6934 19.502 35.9277 19.6289L36.3477 19.873L36.2891 22.4023C34.2383 22.9102 33.6426 23.0762 33.623 23.1055C33.6133 23.125 33.7012 23.2812 33.8281 23.457C33.9648 23.6328 34.1406 23.9355 34.2383 24.1211C34.3359 24.3066 34.4727 24.6777 34.541 24.9512C34.6191 25.2344 34.668 25.9668 34.6777 26.7285C34.6777 27.4414 34.6973 28.0273 34.7266 28.0273C34.7461 28.0273 36.6699 27.0312 38.9941 25.8105C41.3184 24.5996 43.2715 23.5547 43.3398 23.4961C43.4277 23.418 42.959 23.2617 41.5039 22.9004L39.5508 22.4121L39.5605 19.8242C40.2734 19.3848 40.6543 19.0625 40.8691 18.8281C41.084 18.5938 41.3867 18.125 41.5527 17.7734C41.8555 17.1387 41.8555 17.1387 41.8555 15.3711V13.6133C41.2793 12.4512 40.9473 11.9727 40.6641 11.6895C40.4004 11.4355 40.0586 11.1523 39.9023 11.0547C39.7363 10.9473 39.3848 10.8008 39.1211 10.7129C38.8477 10.6348 38.457 10.5469 38.2422 10.5176C38.0273 10.498 37.5879 10.5078 37.2656 10.5566C36.9434 10.6055 36.4355 10.7617 36.1426 10.9082ZM1.66992 34.9121C4.27734 35.7715 5.04883 36.0156 5.05859 36.0059C5.07812 35.9961 5.74219 33.3691 6.54297 30.1758C7.34375 26.9824 7.98828 24.3555 7.97852 24.3457C7.96875 24.3359 6.67969 23.584 5.10742 22.666C3.13477 21.5137 2.1582 20.9961 1.96289 20.9961H1.66992V34.9121ZM32.7441 30.6641C32.3926 30.6641 31.377 30.4199 29.5215 29.8926C28.0371 29.4727 26.6406 29.0918 26.4258 29.0527C26.2109 29.0137 25.7715 29.043 25.4492 29.1016C25.0488 29.1797 24.0137 29.6484 22.2461 30.5273C19.7656 31.7676 19.6289 31.8555 19.4824 32.1973C19.3848 32.4219 19.3457 32.6953 19.3848 32.9102C19.4141 33.0957 19.5605 33.3691 19.707 33.5156C19.8535 33.6621 20.1172 33.8086 20.293 33.8379C20.498 33.8672 20.7422 33.8184 20.9766 33.7012C21.1816 33.6035 21.9824 33.1348 22.7637 32.666C23.5352 32.1973 24.3555 31.7383 24.5703 31.6504C24.8145 31.5527 25.2344 31.4941 25.6934 31.4941C26.3281 31.4941 26.5137 31.5332 27.0605 31.8066C27.5488 32.0605 28.4961 32.8516 31.2598 35.3418L34.8242 38.5547L48.3496 31.7871C48.3496 24.7852 48.3105 22.7539 48.2715 22.7637C48.2324 22.7637 44.834 24.541 40.7324 26.709C33.6621 30.4492 33.2324 30.6543 32.7441 30.6641ZM8.01758 30.9277C7.26562 33.9551 6.65039 36.4551 6.65039 36.4941C6.65039 36.5332 7.01172 36.6895 7.45117 36.8359C7.90039 36.9824 8.26172 37.0898 8.27148 37.0801C8.28125 37.0703 8.97461 34.6387 9.81445 31.6895C10.6543 28.7305 11.3086 26.2891 11.2695 26.2598C11.2207 26.2207 10.8008 25.9766 10.3223 25.7031C9.76562 25.3711 9.45312 25.2441 9.42383 25.3223C9.4043 25.3809 8.76953 27.9102 8.01758 30.9277ZM15.2441 28.1836C13.6523 28.5352 12.334 28.8477 12.3145 28.877C12.2852 28.9063 11.7871 30.5957 11.2109 32.627C10.6348 34.6582 10.1758 36.3574 10.1953 36.3965C10.2246 36.4355 10.7715 36.7871 11.416 37.1777L12.6074 37.8906C14.2188 36.2402 14.6582 35.8887 15 35.7324C15.293 35.6055 15.6934 35.5176 16.0254 35.5176C16.416 35.5078 16.7188 35.5762 17.1191 35.7715C17.5195 35.957 17.7832 36.1719 18.0273 36.4941C18.2129 36.748 18.3984 37.1387 18.4375 37.3535C18.4766 37.5684 18.5645 37.793 18.6328 37.8613C18.7012 37.9297 18.8574 37.9883 18.9746 37.9883C19.1016 37.9883 19.4238 38.125 19.707 38.2812C20.0195 38.457 20.332 38.7402 20.4883 38.9844C20.6348 39.209 20.8105 39.5898 20.8691 39.834C20.9668 40.2637 20.9961 40.293 21.4746 40.4297C21.748 40.5078 22.1582 40.7031 22.3926 40.8691C22.666 41.0645 22.9004 41.3477 23.0762 41.6992C23.2324 41.9922 23.3496 42.3535 23.3496 42.5C23.3496 42.6953 23.3984 42.7734 23.5156 42.7734C23.6133 42.7734 23.8867 42.832 24.1309 42.9199C24.3652 42.998 24.7559 43.2422 24.9805 43.457C25.2148 43.6719 25.4004 43.8867 25.4004 43.9453C25.4004 43.9941 25.7617 44.3359 26.2012 44.707C26.6504 45.0684 27.1875 45.498 27.4023 45.6543C27.6562 45.8398 27.9102 45.9375 28.1445 45.9375C28.3984 45.9473 28.584 45.8789 28.7598 45.7031C28.9258 45.5469 29.0137 45.3516 29.0137 45.166C29.0137 45 28.9551 44.7852 28.877 44.6777C28.7988 44.5703 27.793 43.6914 26.6309 42.7246C25.4688 41.7578 24.5215 40.9473 24.5215 40.918C24.5215 40.8887 24.7559 40.6055 25.0293 40.293L25.5469 39.7168C28.7988 42.4316 29.8535 43.291 29.9902 43.3887C30.1172 43.4766 30.3809 43.5547 30.5566 43.5547C30.791 43.5547 30.9668 43.4668 31.1719 43.2617C31.3281 43.0957 31.4551 42.8711 31.4551 42.7441C31.4551 42.627 31.377 42.4121 31.2793 42.2656C31.1914 42.1191 30.1758 41.2305 29.0332 40.2832C27.8906 39.3457 26.9629 38.5547 26.9629 38.5254C26.9629 38.4961 27.168 38.2129 27.4219 37.8906C27.6758 37.5781 27.9102 37.3145 27.9395 37.3145C27.959 37.3047 29.0137 38.1641 30.2832 39.209C32.373 40.9473 32.6074 41.1133 32.9395 41.1133C33.1836 41.1133 33.3887 41.0352 33.5449 40.8887C33.6816 40.7715 33.8184 40.5664 33.8477 40.4297C33.877 40.2832 33.8281 40.0586 33.7207 39.8633C33.6328 39.6973 31.9922 38.1543 30.0879 36.4453C28.1738 34.7461 26.4941 33.291 26.3477 33.2227C26.2012 33.1543 25.9082 33.1055 25.6934 33.1055C25.4785 33.1055 25.1758 33.1543 25.0293 33.2227C24.8828 33.291 24.1504 33.7109 23.3984 34.1699C22.6465 34.6191 21.8066 35.0879 21.543 35.2148C21.2207 35.3711 20.8691 35.4492 20.5176 35.4492C20.2148 35.4492 19.7559 35.3711 19.4922 35.2734C19.2188 35.1855 18.8281 34.9316 18.6133 34.7168C18.3984 34.502 18.125 34.1504 18.0273 33.9355C17.8711 33.6328 17.832 33.3496 17.832 32.666C17.832 31.9629 17.8711 31.709 18.0371 31.3965C18.1543 31.1816 18.418 30.8496 18.623 30.6641C18.8379 30.4785 19.9414 29.8633 21.084 29.2969C22.2168 28.7305 23.1543 28.252 23.1543 28.2227C23.1543 28.1934 22.7734 28.0469 22.2949 27.9004C21.8262 27.7539 21.1816 27.5879 20.8594 27.5391C20.5371 27.4805 19.8926 27.4512 19.4434 27.4512C18.9844 27.4609 18.4961 27.4902 18.3691 27.5098C18.2324 27.5293 16.8262 27.832 15.2441 28.1836ZM13.7793 39.4141C13.7695 39.6875 13.8281 39.8535 13.9941 40.0098C14.1113 40.1367 14.3359 40.2539 14.4824 40.2832C14.6289 40.3125 14.873 40.2734 15.0195 40.1953C15.166 40.1172 15.6543 39.6875 16.0938 39.2383C16.8262 38.4961 16.8945 38.3887 16.8945 38.0371C16.8945 37.8223 16.8457 37.5781 16.7773 37.4902C16.709 37.4023 16.5625 37.2852 16.4355 37.2168C16.3184 37.1582 16.1035 37.1094 15.957 37.1094C15.7617 37.1094 15.4688 37.334 14.7461 38.0664C13.8672 38.9453 13.7891 39.0625 13.7793 39.4141ZM16.2109 41.5527C16.1523 41.7383 16.1523 41.9336 16.2012 42.0898C16.25 42.2266 16.377 42.4121 16.4746 42.5098C16.582 42.6074 16.8164 42.6855 17.041 42.6855C17.4121 42.6953 17.4902 42.6367 18.3398 41.7773C18.8477 41.2793 19.2773 40.7617 19.3066 40.625C19.3359 40.4883 19.3359 40.2832 19.3066 40.1562C19.2676 40.0391 19.1504 39.8535 19.0234 39.7461C18.8867 39.6191 18.6719 39.5508 18.4375 39.5508C18.1055 39.5508 17.9785 39.6387 17.1875 40.4004C16.6992 40.8691 16.2598 41.3867 16.2109 41.5527ZM19.4238 43.0273C18.7109 43.75 18.5645 43.9453 18.5645 44.209C18.5645 44.4141 18.6523 44.6387 18.8086 44.8242C19.0039 45.0684 19.1211 45.1172 19.4629 45.1074C19.8535 45.1074 19.9316 45.0488 20.6934 44.3066C21.1426 43.8672 21.5723 43.3789 21.6504 43.2324C21.7188 43.0859 21.7871 42.8809 21.7871 42.7734C21.7871 42.666 21.6797 42.4512 21.5527 42.3047C21.4258 42.1582 21.2109 42.0117 21.0742 41.9824C20.9375 41.9531 20.6934 41.9727 20.5469 42.041C20.3906 42.1094 19.8926 42.5488 19.4238 43.0273ZM21.7676 45.4785C21.0742 46.2109 21.0059 46.3281 21.0059 46.6797C21.0059 46.9922 21.0645 47.1191 21.2988 47.3145C21.4551 47.4512 21.6992 47.5586 21.8359 47.5586C21.9629 47.5586 22.1973 47.5 22.3438 47.4219C22.4902 47.3438 22.9297 46.9629 23.3105 46.5625C23.7012 46.1719 24.0625 45.7227 24.1211 45.5762C24.1797 45.4297 24.1992 45.2148 24.1797 45.0879C24.1504 44.9707 24.0332 44.7754 23.9062 44.6582C23.7891 44.541 23.5742 44.4238 23.4473 44.3945C23.3008 44.3555 23.0664 44.4043 22.8711 44.502C22.6855 44.5996 22.1973 45.0391 21.7676 45.4785ZM25.3711 46.6504C25.2344 46.8555 24.9805 47.1484 24.8145 47.3145C24.6484 47.4707 24.5117 47.6367 24.5215 47.6758C24.5215 47.7148 24.707 47.8809 24.9316 48.0469C25.2246 48.252 25.459 48.3398 25.7422 48.3398C26.0156 48.3398 26.1914 48.2812 26.3477 48.125C26.4941 47.9785 26.5625 47.7832 26.5625 47.5586C26.5625 47.373 26.4941 47.1289 26.3965 47.0215C26.3086 46.9141 26.0938 46.6992 25.9277 46.5527L25.6348 46.2793L25.3711 46.6504Z" fill="white"/>
</svg>
