<svg width="50" height="50" viewBox="0 0 50 50" fill="none" xmlns="http://www.w3.org/2000/svg">
<path fill-rule="evenodd" clip-rule="evenodd" d="M24.9902 0C25.2637 0 25.42 0.0683594 25.9378 0.595703V5.56641L25.6741 5.83008C25.4689 6.03516 25.3028 6.10352 25.0097 6.10352C24.7167 6.10352 24.5603 6.03516 24.0816 5.56641L23.9937 0.703125L24.3161 0.351562C24.5701 0.0683594 24.7167 0 24.9902 0V0ZM25.5471 11.6016C25.8694 11.6211 26.4165 11.6992 26.7682 11.7676C27.1199 11.8359 27.7549 12.0312 28.1848 12.1973C28.6147 12.3633 29.2497 12.6855 29.6014 12.9102C29.9531 13.1445 30.5392 13.6133 30.9105 13.9648C31.2817 14.3164 31.7702 14.8633 31.9949 15.1855C32.2293 15.5078 32.5713 16.084 32.7471 16.4551C32.9327 16.8262 33.1086 17.2461 33.1379 17.3828C33.1965 17.627 33.2063 17.627 33.7241 17.1582C34.0074 16.9043 34.4861 16.5723 34.7792 16.4062C35.0722 16.25 35.5803 16.0254 35.9026 15.918C36.3227 15.7617 36.8112 15.6836 37.6611 15.6543C38.3743 15.6152 39.107 15.6445 39.5173 15.7129C39.9472 15.791 40.5431 15.9961 41.1293 16.2793C41.862 16.6406 42.2039 16.875 42.751 17.4219C43.259 17.9395 43.5423 18.3301 43.8452 18.9453C44.0699 19.4043 44.3239 20.0879 44.402 20.459C44.5095 20.9668 44.5486 21.8555 44.5486 23.8574C44.5486 25.8984 44.5095 26.7383 44.402 27.2754C44.3239 27.6562 44.0992 28.2812 43.9136 28.6621C43.728 29.043 43.386 29.5898 43.1516 29.8828C42.9269 30.1758 42.4579 30.6152 41.5298 31.2988V31.8652C41.5201 32.2266 41.5591 32.4316 41.6373 32.4609C41.7057 32.4805 42.5947 32.7051 43.6205 32.9492C45.0078 33.2812 45.6818 33.4961 46.3071 33.7988C46.9616 34.1309 47.3133 34.3848 47.9777 35.0488C48.6029 35.6836 48.9155 36.084 49.2086 36.6699C49.4333 37.0996 49.7068 37.8223 49.8241 38.2812C50.0097 39.0234 50.0292 39.3262 49.9706 43.1641L49.4333 43.7012L41.0804 43.75L41.1586 44.0723C41.1977 44.2383 41.227 45.2051 41.227 48.0469L47.4794 48.0957L47.7432 48.3691C47.9483 48.5742 48.0167 48.7305 48.0167 49.0234C48.0167 49.3164 47.9483 49.4727 47.4306 50H2.5889L2.29582 49.707C2.07112 49.4727 2.00273 49.3164 2.00273 49.0234C2.00273 48.7305 2.07112 48.5742 2.54005 48.0957L8.79248 48.0469V46.2109C8.79248 45.2051 8.82179 44.2383 8.93903 43.75L0.566627 43.7012L0 43.0664V41.084C0 39.4336 0.0293083 38.9746 0.205158 38.2812C0.312622 37.8223 0.586166 37.0996 0.801093 36.6699C1.10395 36.084 1.41657 35.6738 2.04181 35.0488C2.70613 34.3848 3.05783 34.1309 3.71238 33.7988C4.33763 33.4961 5.01172 33.2812 6.39897 32.9492C7.415 32.7051 8.31378 32.4805 8.3724 32.4609C8.46032 32.4316 8.4994 32.2266 8.48963 31.2988L7.88393 30.8594C7.56154 30.6152 7.0926 30.1758 6.85814 29.8828C6.62367 29.5898 6.28174 29.043 6.09612 28.6621C5.92027 28.2812 5.70535 27.6563 5.61742 27.2656C5.50996 26.7285 5.47088 25.9082 5.47088 23.8574C5.47088 21.8555 5.50996 20.9668 5.61742 20.459C5.69558 20.0879 5.94958 19.4043 6.17428 18.9453C6.47713 18.3301 6.76044 17.9395 7.26845 17.4219C7.81554 16.875 8.15747 16.6406 8.89018 16.2793C9.47634 15.9961 10.0723 15.791 10.5021 15.7129C10.9124 15.6445 11.6452 15.6152 12.3583 15.6543C13.2083 15.6836 13.6967 15.7617 14.1168 15.918C14.4392 16.0254 14.9472 16.25 15.2403 16.4062C15.5334 16.5723 16.0121 16.9043 16.2954 17.1582C16.8132 17.627 16.823 17.627 16.8816 17.3828C16.9109 17.2461 17.0867 16.8262 17.2723 16.4551C17.4482 16.084 17.7901 15.5078 18.0246 15.1855C18.2493 14.8633 18.7378 14.3164 19.109 13.9648C19.4802 13.6133 20.0469 13.1543 20.3693 12.9492C20.6916 12.7344 21.1703 12.4609 21.4439 12.3438C21.7077 12.2266 22.2352 12.041 22.6162 11.9238C22.9875 11.8066 23.6713 11.6797 24.1305 11.6406C24.5896 11.6016 25.2247 11.582 25.5471 11.6016ZM23.007 13.8379C22.6846 13.9453 22.1082 14.1895 21.737 14.4043C21.3169 14.6289 20.7698 15.0684 20.3106 15.5176C19.7342 16.1035 19.4802 16.4551 19.1188 17.1875C18.8648 17.6953 18.5912 18.4277 18.5131 18.7988C18.4349 19.1699 18.3665 19.6875 18.3665 19.9414V20.4102C19.9199 20.4102 20.7405 20.3418 21.1997 20.2637C21.6588 20.1855 22.3134 20.0293 22.6651 19.9121C23.0168 19.7949 23.5834 19.5801 23.9351 19.4141C24.2868 19.2578 24.9316 18.8867 25.3712 18.5938C25.8206 18.3008 26.6021 17.6465 27.1102 17.1387C27.6182 16.6309 28.136 16.1816 28.2532 16.1523C28.3802 16.123 28.5951 16.123 28.7417 16.1523C28.898 16.1816 29.1031 16.3086 29.2106 16.4258C29.3181 16.5527 29.4255 16.7676 29.4548 16.9141C29.4841 17.0703 29.4451 17.3047 29.3669 17.4512C29.2887 17.6074 29.0543 17.9297 28.8296 18.1836L28.429 18.6523C28.9957 19.3945 29.3181 19.7266 29.5037 19.873C29.6893 20.0098 30.0605 20.1855 30.3341 20.2637C30.5978 20.3516 31.0082 20.4102 31.2329 20.4102H31.6529C31.6529 19.6875 31.5846 19.1699 31.5064 18.7988C31.4282 18.4277 31.1547 17.6953 30.9105 17.1875C30.5295 16.4258 30.3048 16.1133 29.66 15.4785C29.0836 14.9023 28.6537 14.5898 28.0871 14.2969C27.6572 14.0723 26.9734 13.8281 26.5728 13.7402C26.1723 13.6523 25.6447 13.5742 25.4005 13.5547C25.1563 13.5352 24.6483 13.5449 24.277 13.5938C23.896 13.6328 23.3294 13.7402 23.007 13.8379ZM9.52519 18.1348C9.26142 18.2812 8.8511 18.6035 8.61663 18.8477C8.3724 19.0918 8.07932 19.4922 7.95231 19.7461C7.82531 20.0098 7.64946 20.4688 7.57131 20.7715C7.49315 21.084 7.42476 21.4844 7.42476 21.6504V21.9727C8.21609 21.8945 8.66548 21.8164 8.93903 21.7676C9.2028 21.709 9.5545 21.6211 9.72058 21.5625C9.87689 21.5039 10.3947 21.2598 10.8636 21.0352C11.3423 20.8008 11.8112 20.6055 11.9187 20.6055C12.0262 20.6055 12.4951 20.8008 12.964 21.0352C13.4427 21.2598 13.9507 21.5039 14.1168 21.5625C14.2731 21.6211 14.6248 21.709 14.8984 21.7676C15.1622 21.8164 15.6213 21.8945 15.8949 21.9238L16.4126 21.9727C16.4126 21.4844 16.3443 21.084 16.2661 20.7715C16.1879 20.4688 16.0121 20.0098 15.8851 19.7461C15.7581 19.4922 15.465 19.0918 15.2208 18.8477C14.9863 18.6035 14.576 18.2812 14.3122 18.1348C14.0387 17.9785 13.5795 17.793 13.2864 17.7148C12.9933 17.6367 12.3486 17.5781 11.8699 17.5879C11.3814 17.5879 10.7659 17.6465 10.5021 17.7246C10.2286 17.793 9.79874 17.9785 9.52519 18.1348ZM35.7073 18.1348C35.4435 18.2812 35.0332 18.6035 34.7987 18.8477C34.5545 19.0918 34.2614 19.4922 34.1344 19.7461C34.0074 20.0098 33.8315 20.4688 33.7534 20.7715C33.6752 21.084 33.6068 21.4844 33.6068 21.6504V21.9727C34.3982 21.8945 34.8475 21.8164 35.1211 21.7676C35.3849 21.709 35.7463 21.6211 35.9026 21.5625C36.059 21.5039 36.5767 21.2598 37.0457 21.0352C37.5244 20.8008 37.9933 20.6055 38.1008 20.6055C38.2082 20.6055 38.6772 20.8008 39.1461 21.0352C39.6248 21.2598 40.1426 21.5039 40.2989 21.5625C40.4552 21.6211 40.8069 21.709 41.0804 21.7676C41.3442 21.8164 41.8034 21.8945 42.0769 21.9238L42.5947 21.9727C42.5947 21.4844 42.5263 21.084 42.4482 20.7715C42.37 20.4688 42.1942 20.0098 42.0672 19.7461C41.9402 19.4922 41.6471 19.0918 41.4028 18.8477C41.1684 18.6035 40.758 18.2812 40.4943 18.1348C40.2207 17.9785 39.7616 17.793 39.4685 17.7148C39.1754 17.6367 38.5306 17.5781 38.0519 17.5879C37.5732 17.5879 36.948 17.6465 36.6842 17.7246C36.4107 17.793 35.9808 17.9785 35.7073 18.1348ZM26.4263 20.2734C26.1528 20.459 25.5373 20.8008 25.0586 21.0449C24.5799 21.2793 23.8472 21.582 23.4466 21.7188C23.0461 21.8555 22.3818 22.0312 21.9812 22.1289C21.5807 22.2168 20.594 22.3145 19.7929 22.3535L18.347 22.4121C18.4349 26.1328 18.474 26.6211 18.6303 27.0996C18.7378 27.4219 18.9918 28.0176 19.2067 28.418C19.4607 28.9258 19.8124 29.375 20.3204 29.8828C20.7307 30.2832 21.2974 30.7617 21.5904 30.9277C21.8835 31.1035 22.4599 31.3672 22.8605 31.5137C23.5345 31.7676 23.7104 31.7871 25.0097 31.7871C26.3091 31.7871 26.4849 31.7676 27.159 31.5137C27.5596 31.3672 28.136 31.1035 28.429 30.9277C28.7221 30.7617 29.2887 30.2832 29.6991 29.8828C30.2071 29.375 30.5588 28.9258 30.8128 28.418C31.0277 28.0176 31.2817 27.4219 31.3892 27.0996C31.5455 26.6113 31.5846 26.1523 31.6139 24.4336L31.6529 22.3633C30.7835 22.3633 30.2657 22.2949 29.9433 22.207C29.6209 22.1289 29.1324 21.9434 28.8687 21.7969C28.5951 21.6504 28.136 21.2891 27.8429 20.9961C27.5498 20.7031 27.2176 20.3418 27.1102 20.1953L26.9148 19.9316L26.4263 20.2734ZM10.2091 23.4277C9.72058 23.5938 8.95856 23.7695 8.4994 23.8281C8.04024 23.8867 7.61038 23.9258 7.542 23.9258C7.45407 23.9258 7.42476 24.2285 7.42476 25.0781C7.42476 25.7031 7.46384 26.4648 7.52246 26.7578C7.58108 27.0605 7.74716 27.5586 7.90347 27.8809C8.05001 28.2031 8.39194 28.6816 8.65571 28.9453C8.91949 29.1992 9.3298 29.5215 9.57404 29.6582C9.81827 29.7852 10.2579 29.9609 10.551 30.0391C10.8441 30.1172 11.4595 30.1758 11.9187 30.1758C12.3779 30.1758 12.9933 30.1172 13.2864 30.0391C13.5795 29.9609 14.0191 29.7949 14.2634 29.6582C14.5076 29.5215 14.9179 29.1992 15.1817 28.9453C15.4455 28.6816 15.7874 28.2031 15.9339 27.8809C16.0902 27.5586 16.2563 27.0605 16.3149 26.7578C16.3736 26.4648 16.4126 25.7031 16.4126 25.0781C16.4126 24.2285 16.3833 23.9258 16.2856 23.9258C16.227 23.9258 15.7972 23.877 15.338 23.8281C14.8788 23.7695 14.1559 23.6035 13.726 23.4668C13.2962 23.3301 12.7393 23.1152 12.4756 22.9883C12.2216 22.8613 11.9578 22.7539 11.8894 22.7637C11.8308 22.7637 11.6158 22.8516 11.4302 22.9492C11.2446 23.0566 10.6878 23.2715 10.2091 23.4277ZM36.3911 23.4277C35.9124 23.5938 35.1406 23.7695 34.6815 23.8281C34.2223 23.8867 33.7924 23.9258 33.7241 23.9258C33.6361 23.9258 33.6068 24.2383 33.6068 25.1758C33.6068 25.9668 33.6557 26.6211 33.7534 26.9824C33.8315 27.2852 34.0074 27.7539 34.1344 28.0078C34.2614 28.2617 34.5838 28.6816 34.8475 28.9453C35.1016 29.1992 35.5119 29.5215 35.7561 29.6582C36.0003 29.7949 36.44 29.9609 36.733 30.0391C37.0261 30.1172 37.6416 30.1758 38.1008 30.1758C38.5599 30.1758 39.1754 30.1172 39.4685 30.0391C39.7616 29.9609 40.2012 29.7852 40.4454 29.6484C40.6897 29.5117 41.1 29.1895 41.3638 28.9355C41.6275 28.6816 41.9597 28.2129 42.116 27.8809C42.2723 27.5586 42.4384 27.0605 42.497 26.7578C42.5556 26.4648 42.5947 25.7031 42.5947 25.0781C42.5947 24.2285 42.5654 23.9258 42.4677 23.9258C42.4091 23.9258 41.9792 23.877 41.5201 23.8281C41.0609 23.7695 40.338 23.6035 39.9081 23.4668C39.4783 23.3301 38.9214 23.1152 38.6576 22.9883C38.4036 22.8613 38.1398 22.7539 38.0715 22.7637C38.0128 22.7637 37.7979 22.8516 37.6123 22.9492C37.4267 23.0566 36.8698 23.2715 36.3911 23.4277ZM17.116 29.7266C16.95 29.9805 16.5103 30.4199 16.1489 30.7129C15.7776 31.0156 15.4552 31.2598 15.4162 31.25C15.3673 31.25 15.338 31.5137 15.338 31.8359V32.4219C15.9046 32.5684 16.7741 32.7832 17.6338 32.9883C18.4935 33.1934 19.5095 33.5059 19.8808 33.6816C20.252 33.8477 20.5744 33.9941 20.594 33.9941C20.6037 33.9844 20.6135 33.6816 20.6135 33.3008V32.6172C19.6659 31.9629 19.1188 31.4746 18.7866 31.123C18.4447 30.7617 18.0051 30.2051 17.7999 29.873L17.4384 29.2773L17.116 29.7266ZM32.2293 29.8438C32.0437 30.1562 31.6041 30.7129 31.2524 31.084C30.9105 31.4648 30.3438 31.9629 30.0117 32.1973L29.3962 32.6172C29.3962 33.6816 29.4157 33.9844 29.4255 33.9844C29.4353 33.9941 29.7577 33.8477 30.1289 33.6816C30.5099 33.5059 31.5162 33.1934 32.3759 32.9883C33.2356 32.7734 34.1051 32.5684 34.3102 32.5195L34.6717 32.4219V31.2988C33.8218 30.6934 33.4408 30.3613 33.2747 30.166C33.1086 29.9805 32.8741 29.6973 32.7667 29.5508L32.5713 29.2773L32.2293 29.8438ZM10.4533 32.627C10.4533 32.959 10.6878 34.0625 11.0883 35.6543C11.44 37.0215 11.7429 38.1445 11.7526 38.1543C11.7624 38.1641 11.8601 38.0957 11.9675 38.0078C12.1141 37.8906 12.3192 37.2559 12.7686 35.5078C13.1496 34.0332 13.3743 32.959 13.3743 32.627V32.0898H10.4435L10.4533 32.627ZM36.6451 32.627C36.6451 32.959 36.8698 34.043 37.2411 35.5078C37.7002 37.2949 37.8956 37.8809 38.0519 38.0078C38.1594 38.1055 38.2571 38.1641 38.2668 38.1543C38.2766 38.1445 38.5795 37.0215 38.9312 35.6543C39.3317 34.0625 39.5662 32.959 39.5662 32.627V32.0898H36.6354L36.6451 32.627ZM23.7592 40.166C24.4138 42.7051 24.9609 44.8047 24.9804 44.834C25 44.8535 25.039 44.8535 25.0683 44.834C25.0879 44.8047 25.635 42.7148 26.2895 40.1953C27.4326 35.7129 27.4619 35.5762 27.4619 34.5508C27.4619 33.9746 27.4326 33.5059 27.3935 33.5059C27.3544 33.5059 27.0515 33.5645 26.7292 33.6426C26.397 33.7305 25.6643 33.7891 25.0195 33.7891C24.3747 33.7891 23.6518 33.7305 23.3099 33.6426C22.9875 33.5645 22.6944 33.5059 22.6553 33.5059C22.6162 33.5059 22.5771 33.9648 22.5771 34.5312C22.5771 35.5176 22.6162 35.7031 23.7592 40.166ZM4.65025 35.5273C4.32786 35.6934 3.84915 36.0156 3.58538 36.25C3.32161 36.4844 2.98944 36.8555 2.8429 37.0703C2.68659 37.2852 2.45213 37.7637 2.30558 38.1445C2.06135 38.7598 2.03204 38.9648 2.00273 40.3125L1.96365 41.8066L9.33957 41.7969C9.98435 40.4785 10.17 40.0488 10.17 40C10.17 39.9414 9.86712 38.6523 9.49588 37.1387C9.11487 35.625 8.77295 34.3848 8.73387 34.3848C8.69479 34.3945 7.8937 34.5898 6.94606 34.8145C5.96912 35.0586 4.98241 35.3613 4.65025 35.5273ZM14.5955 36.4062C14.6053 36.4258 14.9961 36.3281 15.4455 36.2012C15.9046 36.0742 16.8132 35.8398 17.4775 35.6836C18.1321 35.5273 18.6694 35.3711 18.6694 35.332C18.6694 35.293 18.6205 35.2441 18.5521 35.2246C18.4838 35.1953 17.751 35.0195 16.9109 34.8242C16.0805 34.6289 15.3282 34.4434 15.2403 34.4238C15.1231 34.3848 15.0351 34.5703 14.8398 35.3809C14.6932 35.9277 14.5858 36.3965 14.5955 36.4062ZM31.7409 35.1562C31.5357 35.2148 31.3696 35.293 31.3696 35.332C31.3696 35.3711 31.9069 35.5273 32.5713 35.6836C33.2258 35.8398 34.1441 36.0742 34.5935 36.2012C35.0527 36.3281 35.4337 36.4258 35.4435 36.4062C35.4533 36.3965 35.3653 35.9277 35.2383 35.3809C35.1113 34.834 34.9745 34.3848 34.9257 34.3848C34.8769 34.3945 34.2223 34.541 33.4701 34.7266C32.7178 34.9121 31.9363 35.1074 31.7409 35.1562ZM39.869 40C39.869 40.0488 40.0644 40.4785 40.2891 40.9473L40.6994 41.7969L48.0754 41.8066C48.0167 38.9648 47.9874 38.7598 47.7432 38.1445C47.5966 37.7637 47.3524 37.2852 47.2059 37.0703C47.0593 36.8555 46.7174 36.4844 46.4536 36.25C46.1898 36.0156 45.7209 35.6934 45.4181 35.5371C45.1054 35.3809 44.1285 35.0781 43.2199 34.8633C42.3212 34.6484 41.5103 34.4434 41.4321 34.4238C41.3149 34.3848 41.1488 34.9121 40.5724 37.1387C40.1817 38.6523 39.869 39.9414 39.869 40ZM15.719 38.1641C15.6799 38.2031 17.3114 39.9121 19.3532 41.9531C21.395 43.9941 23.0754 45.6348 23.0949 45.6152C23.1242 45.5859 22.6651 43.7402 22.0984 41.5137C21.522 39.2773 21.0238 37.334 20.9847 37.1875C20.9457 37.0117 20.8577 36.9238 20.7503 36.9238C20.6526 36.9336 19.4998 37.1973 18.1809 37.5195C16.8718 37.832 15.7581 38.125 15.719 38.1641ZM28.048 41.1719C27.4619 43.4766 26.9734 45.4297 26.9734 45.5176C26.9734 45.5957 28.644 43.9941 30.6858 41.9531C32.7276 39.9121 34.3688 38.2031 34.3298 38.1738C34.2907 38.1348 33.1477 37.832 31.7897 37.5098C30.4318 37.1875 29.279 36.9238 29.2204 36.9238C29.1715 36.9238 29.1227 36.9336 29.1227 36.9434C29.1227 36.9531 28.644 38.8574 28.048 41.1719ZM11.8601 41.123C11.6842 41.416 11.4302 41.9434 11.2837 42.2949C11.1469 42.6367 10.9711 43.2422 10.8929 43.6328C10.805 44.082 10.7561 45.0195 10.7561 46.2012V48.0566H22.626C15.7385 41.1621 13.7065 39.1602 13.6674 39.1602C13.6284 39.1602 13.2767 39.4824 12.8859 39.8828C12.4951 40.2734 12.0359 40.8301 11.8601 41.123ZM27.413 48.0566H39.2829C39.2829 45.0195 39.234 44.082 39.1461 43.6328C39.0777 43.2422 38.9019 42.6367 38.7553 42.2949C38.6185 41.9434 38.3645 41.416 38.1887 41.123C38.0128 40.8301 37.5537 40.2734 37.1629 39.8828C36.7721 39.4824 36.4204 39.1699 36.3813 39.1699C36.3423 39.1699 34.3005 41.1621 31.8581 43.6133L27.413 48.0566ZM36.1567 4.07227C36.2934 4.10156 36.5279 4.24805 36.6744 4.4043C36.821 4.56055 36.9382 4.80469 36.9382 4.93164C36.9382 5.06836 36.8796 5.30273 36.8014 5.44922C36.7233 5.5957 35.7463 6.63086 34.6228 7.74414C32.6201 9.73633 32.5908 9.76562 32.1805 9.76562C31.8483 9.76562 31.7018 9.7168 31.4673 9.47266C31.2426 9.25781 31.1742 9.0918 31.1742 8.81836C31.184 8.47656 31.311 8.32031 33.2063 6.35742C34.6424 4.87305 35.336 4.21875 35.5705 4.14062C35.7659 4.07227 36.0199 4.04297 36.1567 4.07227ZM14.2536 4.20898C14.5955 4.20898 14.7323 4.32617 16.6959 6.2793C18.6498 8.24219 18.7671 8.37891 18.7671 8.7207C18.7671 8.92578 18.6889 9.19922 18.601 9.33594C18.5033 9.47266 18.2884 9.62891 18.1125 9.67773C17.8781 9.74609 17.7022 9.73633 17.4775 9.63867C17.3017 9.56055 16.2856 8.62305 15.2305 7.55859C13.8237 6.14258 13.2962 5.55664 13.2864 5.37109C13.2864 5.24414 13.2864 5.03906 13.2962 4.93164C13.306 4.82422 13.4427 4.61914 13.599 4.47266C13.8042 4.27734 13.9898 4.20898 14.2536 4.20898ZM25.0195 7.61719C25.3126 7.61719 25.4787 7.68555 25.6545 7.86133C25.7913 7.99805 25.9281 8.23242 25.9574 8.37891C25.9867 8.52539 25.9574 8.7793 25.889 8.93555C25.8108 9.08203 25.6643 9.27734 25.5568 9.3457C25.4494 9.42383 25.2051 9.48242 25.0195 9.48242C24.8339 9.48242 24.5896 9.42383 24.4822 9.3457C24.3747 9.27734 24.2282 9.08203 24.1598 8.93555C24.0816 8.7793 24.0523 8.52539 24.0816 8.37891C24.1207 8.23242 24.2477 7.99805 24.3845 7.86133C24.5603 7.68555 24.7264 7.61719 25.0195 7.61719Z" fill="white"/>
</svg>
