<svg width="41" height="50" viewBox="0 0 41 50" fill="none" xmlns="http://www.w3.org/2000/svg">
<path fill-rule="evenodd" clip-rule="evenodd" d="M7.84179 0.00976562C8.57757 0 9.08099 0.0488281 9.68123 0.205078C10.1362 0.3125 10.8139 0.546875 11.1818 0.722656C11.5497 0.898438 12.0822 1.18164 12.3436 1.36719C12.6146 1.55273 13.0793 1.94336 13.3988 2.23633C13.7086 2.53906 14.154 3.04688 14.3766 3.36914C14.609 3.69141 14.9575 4.30664 15.1608 4.73633C15.3544 5.16602 15.5965 5.9082 15.6933 6.39648C15.7901 6.88477 15.8772 7.60742 15.8772 8.00781C15.8772 8.4082 15.7901 9.13086 15.6933 9.61914C15.5965 10.1074 15.3641 10.8301 15.1802 11.2305C14.9962 11.6309 14.7058 12.1875 14.5218 12.4512C14.3379 12.7246 13.9507 13.1934 13.6602 13.5156C13.3601 13.8281 12.8567 14.2773 12.5372 14.502C12.2177 14.7363 11.6078 15.0879 11.1818 15.293C10.7558 15.4883 10.0104 15.7324 9.53601 15.8301C9.06163 15.9277 8.33554 16.0156 7.93861 16.0156C7.54168 16.0156 6.82527 15.9277 6.3412 15.8301C5.85714 15.7324 5.12137 15.4883 4.6954 15.293C4.26942 15.0879 3.6595 14.7363 3.34002 14.502C3.02054 14.2773 2.51712 13.8281 2.217 13.5156C1.92656 13.1934 1.53932 12.7246 1.35537 12.4512C1.17143 12.1875 0.890673 11.6504 0.716411 11.2793C0.542149 10.9082 0.309799 10.2246 0.203306 9.76562C0.0677686 9.21875 0 8.62305 0 8.00781C0 7.39258 0.0677686 6.79688 0.203306 6.25C0.309799 5.79102 0.55183 5.08789 0.745455 4.6875C0.929398 4.28711 1.26824 3.69141 1.50059 3.36914C1.72326 3.04688 2.1686 2.53906 2.47839 2.23633C2.79787 1.94336 3.27225 1.55273 3.53365 1.36719C3.80472 1.18164 4.29847 0.908203 4.64699 0.742188C4.99551 0.576172 5.62479 0.351562 6.05077 0.234375C6.59292 0.0878906 7.13507 0.0195312 7.84179 0.00976562ZM18.2201 0H38.7249L39.2283 0.224609C39.5091 0.351562 39.9351 0.644531 40.1674 0.888672C40.4094 1.12305 40.6902 1.51367 40.7967 1.75781C41 2.19727 41 2.2168 41 25C41 47.7832 41 47.8027 40.7967 48.2422C40.6902 48.4863 40.4094 48.877 40.1674 49.1113C39.9351 49.3555 39.5091 49.6484 38.7249 50H2.32349L1.79103 49.7559C1.50059 49.6191 1.05525 49.3066 0.813223 49.0527C0.55183 48.7695 0.300118 48.3789 0.183943 48.0762C0.00968123 47.5781 0 47.1484 0 34.1016C0 21.4258 0.00968123 20.6445 0.164581 20.4199C0.261393 20.2832 0.484061 20.1172 0.648642 20.0488C0.910035 19.9414 1.02621 19.9414 1.27792 20.0488C1.45218 20.127 1.66517 20.2637 1.74262 20.3613C1.86848 20.5176 1.89752 22.2266 1.98465 47.4609L2.51712 47.998H38.5313L39.0638 47.4609V2.53906L38.5313 2.00195L28.3854 1.95312C22.809 1.92383 18.1813 1.875 18.1039 1.83594C18.0264 1.79687 17.8812 1.65039 17.7844 1.51367C17.6973 1.37695 17.6198 1.12305 17.6102 0.9375C17.6102 0.683594 17.6779 0.527344 17.9103 0.302734L18.2201 0ZM5.32468 2.57812C5.03424 2.71484 4.55018 3.02734 4.24038 3.27148C3.93058 3.51562 3.48524 3.96484 3.24321 4.26758C3.01086 4.58008 2.70106 5.07812 2.55584 5.37109C2.42031 5.66406 2.22668 6.24023 2.12019 6.64062C2.02338 7.04102 1.93625 7.65625 1.93625 8.00781C1.93625 8.35938 2.02338 8.97461 2.12019 9.375C2.22668 9.77539 2.42031 10.3516 2.55584 10.6445C2.70106 10.9375 3.01086 11.4355 3.24321 11.7383C3.48524 12.0508 3.93058 12.5 4.24038 12.7441C4.55018 12.9883 5.03424 13.291 5.32468 13.4375C5.62479 13.5742 6.1863 13.7695 6.58323 13.877C6.98985 13.9746 7.59976 14.0625 7.93861 14.0625C8.28713 14.0625 8.89705 13.9746 9.29398 13.877C9.70059 13.7695 10.2621 13.5742 10.5525 13.4375C10.8527 13.291 11.3367 12.9883 11.6465 12.7441C11.9563 12.5 12.4017 12.0508 12.634 11.7383C12.876 11.4355 13.1858 10.9375 13.331 10.6445C13.4666 10.3516 13.6602 9.77539 13.7667 9.375C13.8635 8.97461 13.9507 8.35938 13.9507 8.00781C13.9507 7.65625 13.8635 7.04102 13.7667 6.64062C13.6602 6.24023 13.4666 5.66406 13.331 5.37109C13.1858 5.07812 12.876 4.58008 12.634 4.26758C12.4017 3.96484 11.9563 3.51562 11.6465 3.27148C11.3367 3.02734 10.8527 2.71484 10.5525 2.57812C10.2621 2.43164 9.70059 2.23633 9.29398 2.13867C8.89705 2.03125 8.26777 1.95312 7.8902 1.95312C7.52231 1.96289 6.9124 2.04102 6.53483 2.13867C6.16694 2.23633 5.62479 2.43164 5.32468 2.57812ZM1.11334 16.3574C1.27792 16.3867 1.51995 16.5137 1.64581 16.6504C1.82975 16.8262 1.88784 17.002 1.88784 17.2852C1.88784 17.5781 1.82975 17.7344 1.62645 17.9395C1.42314 18.1348 1.26824 18.2031 0.977804 18.2129C0.687367 18.2129 0.532468 18.1445 0.300118 17.9199C0.0774498 17.7051 0 17.5391 0 17.2852C0 17.041 0.0774498 16.8652 0.271074 16.6895C0.416293 16.543 0.600236 16.4062 0.677686 16.3672C0.764817 16.3379 0.958442 16.3379 1.11334 16.3574ZM20.8146 3.95508C21.6182 3.97461 22.4992 4.0625 23.0897 4.17969C23.6222 4.29688 24.4354 4.52148 24.8808 4.6875C25.3358 4.85352 26.0812 5.18555 26.5266 5.42969C26.9816 5.67383 27.698 6.12305 28.1143 6.42578C28.5306 6.72852 29.276 7.40234 29.7601 7.91016C30.2538 8.41797 30.8928 9.20898 31.1929 9.66797C31.493 10.127 31.8803 10.7812 32.0545 11.1328C32.2191 11.4844 32.4902 12.1191 32.6451 12.5488C32.8 12.9785 33.0227 13.7695 33.1388 14.3066C33.3034 15.0781 33.3421 15.6152 33.3421 16.8945C33.3421 18.1641 33.3034 18.7109 33.1388 19.4824C33.0227 20.0195 32.8 20.8105 32.6451 21.2402C32.4902 21.6699 32.2191 22.3047 32.0545 22.6562C31.8803 23.0078 31.493 23.6621 31.1929 24.1211C30.8928 24.5801 30.2538 25.3711 29.7601 25.8789C29.276 26.3867 28.5306 27.0508 28.1143 27.3633C27.698 27.666 26.9816 28.1152 26.5266 28.3496C26.0812 28.5937 25.3358 28.9355 24.8808 29.1016C24.4354 29.2676 23.6222 29.4922 23.0897 29.5996C22.5573 29.707 21.6279 29.8242 21.0083 29.8535C20.2144 29.8926 19.5851 29.8535 18.7816 29.7363C18.1717 29.6484 17.3004 29.4629 16.8453 29.3262C16.4 29.1895 15.5868 28.877 15.0543 28.623C14.5218 28.3691 13.7667 27.9395 13.3601 27.666C12.9632 27.4023 12.3629 26.9141 12.0144 26.6016C11.6756 26.2793 11.2109 25.8301 10.9979 25.5957C10.7849 25.3613 10.3492 24.8145 10.0394 24.375C9.71995 23.9355 9.23589 23.0957 8.95514 22.5098C8.6647 21.9141 8.32586 21.0352 8.19032 20.5566C8.0451 20.0684 7.90956 19.4336 7.87084 19.1406C7.81275 18.6328 7.82243 18.584 8.11287 18.2812C8.3549 18.0273 8.49044 17.9688 8.80992 17.9688C9.08099 17.9688 9.26494 18.0273 9.42952 18.1836C9.57473 18.3203 9.70059 18.623 9.77804 18.9941C9.84581 19.3164 9.99103 19.8633 10.0878 20.2148C10.1943 20.5664 10.4945 21.2695 10.7462 21.7773C10.9979 22.2852 11.4238 22.998 12.1499 24.0137L12.4791 23.5059C12.663 23.2227 13.06 22.7148 13.3504 22.3633C13.6505 22.0215 14.2411 21.4746 14.6671 21.1621C15.093 20.8398 15.8288 20.4004 16.2838 20.1758C16.7485 19.9512 17.1358 19.7559 17.1358 19.7266C17.1455 19.6973 17.0099 19.502 16.8453 19.2871C16.6808 19.0723 16.4387 18.7012 16.3129 18.457C16.1967 18.2129 16.0224 17.7539 15.945 17.4316C15.8482 17.0801 15.7901 16.4453 15.7901 15.8691C15.7901 15.293 15.8482 14.6289 15.945 14.2578C16.0321 13.9062 16.1967 13.4277 16.3129 13.1836C16.4387 12.9395 16.7679 12.4805 17.0583 12.168C17.3391 11.8555 17.8135 11.4551 18.1039 11.2793C18.404 11.1035 18.8784 10.8789 19.1688 10.7812C19.527 10.6641 19.9821 10.5957 20.5242 10.5957C21.0664 10.5957 21.531 10.6641 21.8796 10.7812C22.1797 10.8789 22.6541 11.1035 22.9445 11.2793C23.2446 11.4551 23.719 11.8555 23.9998 12.168C24.2902 12.4805 24.6194 12.9395 24.7355 13.1836C24.8614 13.4277 25.026 13.9062 25.1131 14.2578C25.2099 14.6289 25.268 15.293 25.268 15.8691C25.268 16.4453 25.2099 17.0801 25.1131 17.4316C25.0357 17.7539 24.8614 18.2129 24.7355 18.457C24.6194 18.7012 24.3773 19.0723 24.2128 19.2871C24.0482 19.502 23.9126 19.6973 23.9126 19.7266C23.9223 19.7559 24.2128 19.9023 24.571 20.0684C24.9195 20.2246 25.5391 20.5762 25.9457 20.8398C26.3426 21.1035 26.9816 21.6309 27.3591 22.0117C27.7367 22.3926 28.2208 22.9785 28.4434 23.3105C28.6661 23.6523 28.8985 23.9062 28.9469 23.877C29.005 23.8477 29.2373 23.5547 29.4697 23.2129C29.7117 22.8809 30.0796 22.2559 30.2926 21.8262C30.5055 21.3965 30.7863 20.7129 30.9122 20.3125C31.0477 19.9121 31.2123 19.2676 31.2897 18.8965C31.3575 18.5156 31.4156 17.627 31.4156 16.8945C31.4156 15.9863 31.3672 15.3125 31.2413 14.7461C31.1445 14.2871 30.9799 13.6523 30.8638 13.3301C30.7573 13.0078 30.4668 12.3438 30.2248 11.8652C29.9731 11.377 29.5374 10.6543 29.2373 10.2539C28.9372 9.85352 28.395 9.23828 28.0272 8.88672C27.6593 8.53516 27.0494 8.04688 26.6718 7.79297C26.3039 7.54883 25.694 7.1875 25.3164 7.00195C24.9485 6.81641 24.3773 6.57227 24.0579 6.46484C23.7384 6.35742 23.1285 6.18164 22.7025 6.08398C22.1119 5.95703 21.5117 5.9082 20.0885 5.9082C18.5783 5.9082 18.2007 5.87891 18.0652 5.76172C17.978 5.68359 17.8522 5.45898 17.8038 5.27344C17.7166 5 17.7263 4.86328 17.8522 4.60938C17.9393 4.43359 18.1136 4.24805 18.2298 4.17969C18.3459 4.12109 18.6848 4.0332 18.9752 3.99414C19.2753 3.94531 20.0982 3.93555 20.8146 3.95508ZM19.2172 12.8711C19.0042 12.9785 18.6945 13.2129 18.5299 13.3887C18.3653 13.5742 18.1233 13.916 18.0071 14.1602C17.8231 14.502 17.7747 14.8047 17.736 15.5762C17.707 16.3086 17.736 16.6895 17.8619 17.1387C18.0071 17.6074 18.1426 17.832 18.5783 18.2715C18.9946 18.6914 19.2463 18.8574 19.6529 18.9844C19.953 19.0723 20.3403 19.1406 20.5242 19.1406C20.7178 19.1406 21.1051 19.0723 21.3955 18.9844C21.8118 18.8574 22.0635 18.6914 22.4798 18.2715C22.9155 17.832 23.051 17.6074 23.1865 17.1387C23.3221 16.6895 23.3511 16.3184 23.3221 15.5762C23.2834 14.7656 23.2349 14.5117 23.022 14.1113C22.8864 13.8379 22.625 13.4766 22.4508 13.3105C22.2668 13.1348 21.928 12.9102 21.686 12.8027C21.4536 12.7051 21.0567 12.5977 20.8146 12.5684C20.5823 12.5391 20.2047 12.5488 19.9917 12.5977C19.7787 12.6367 19.4302 12.7637 19.2172 12.8711ZM18.0555 21.5234C17.6295 21.6602 16.9325 21.9922 16.5065 22.2559C16.0805 22.5195 15.4706 22.998 15.1511 23.3105C14.8316 23.623 14.3573 24.209 14.0959 24.6094C13.7377 25.166 13.6505 25.3711 13.7183 25.4883C13.7764 25.5664 14.0959 25.8203 14.4444 26.0547C14.7832 26.2891 15.4028 26.6504 15.8288 26.8555C16.2548 27.0605 16.9131 27.3145 17.281 27.4219C17.6586 27.5391 18.3556 27.6953 18.83 27.7832C19.314 27.8613 20.0789 27.9297 20.5242 27.9297C20.9792 27.9297 21.7634 27.8613 22.2668 27.7734C22.7799 27.6855 23.5157 27.5 23.9126 27.373C24.3192 27.2363 24.9872 26.9531 25.4132 26.7383C25.8392 26.5234 26.4685 26.1523 26.7976 25.918C27.1268 25.6836 27.3979 25.4297 27.3979 25.3613C27.3979 25.293 27.2043 24.9609 26.9719 24.6094C26.7396 24.2578 26.2749 23.6914 25.936 23.3594C25.5972 23.0176 24.9679 22.5195 24.5419 22.2559C24.1159 21.9824 23.4189 21.6602 22.9929 21.5234C22.5669 21.3867 21.9377 21.2402 21.5891 21.1816C21.2503 21.1328 20.7275 21.1035 20.4274 21.1035C20.137 21.1133 19.6626 21.1523 19.3625 21.1914C19.072 21.2402 18.4815 21.3867 18.0555 21.5234ZM11.7143 33.4473C11.9079 33.4766 12.1209 33.5547 12.1983 33.6133C12.2661 33.6816 12.392 33.877 12.4597 34.0527C12.5566 34.2969 12.5662 34.4434 12.4888 34.6387C12.4307 34.7852 12.3048 34.9902 12.2177 35.0879C12.1306 35.1758 11.9273 35.2832 11.7627 35.3125C11.6078 35.3418 11.3658 35.3125 11.2302 35.2539C11.1044 35.1855 10.9204 35.0391 10.8236 34.9219C10.7365 34.8047 10.659 34.5605 10.659 34.375C10.659 34.1895 10.7365 33.9355 10.8236 33.8281C10.9204 33.7109 11.0753 33.5645 11.1818 33.5059C11.2883 33.4473 11.5303 33.418 11.7143 33.4473ZM22.5863 33.3984C27.5818 33.3984 29.6923 33.4277 29.8472 33.5059C29.9634 33.5645 30.1377 33.7109 30.2345 33.8184C30.3216 33.9355 30.3991 34.1895 30.3991 34.375C30.3991 34.5605 30.3216 34.8047 30.2345 34.9219C30.1377 35.0391 29.9634 35.1758 29.8472 35.2441C29.6923 35.3223 27.5818 35.3516 22.5863 35.3516C17.1648 35.3516 15.49 35.3223 15.2963 35.2246C15.1705 35.1562 14.9865 34.9414 14.8897 34.7363C14.7251 34.3848 14.7251 34.3652 14.9091 34.0137C15.0156 33.8184 15.1995 33.5938 15.3254 33.5254C15.4996 33.4277 16.9809 33.3984 22.5863 33.3984ZM11.7143 38.916C11.9079 38.9453 12.1209 39.0234 12.1983 39.082C12.2661 39.1504 12.392 39.3457 12.4597 39.5215C12.5566 39.7656 12.5662 39.9121 12.4888 40.1074C12.4307 40.2539 12.3048 40.459 12.2177 40.5566C12.1306 40.6445 11.9273 40.752 11.7627 40.7812C11.6078 40.8105 11.3658 40.7812 11.2302 40.7227C11.1044 40.6543 10.9204 40.5078 10.8236 40.3906C10.7365 40.2734 10.659 40.0293 10.659 39.8438C10.659 39.6582 10.7365 39.4043 10.8236 39.2969C10.9204 39.1797 11.0753 39.0332 11.1818 38.9746C11.2883 38.916 11.5303 38.8867 11.7143 38.916ZM22.5863 38.8672C27.5818 38.8672 29.6923 38.8965 29.8472 38.9746C29.9634 39.0332 30.1377 39.1797 30.2345 39.2871C30.3216 39.4043 30.3991 39.6582 30.3991 39.8438C30.3991 40.0293 30.3216 40.2734 30.2345 40.3906C30.1377 40.5078 29.9634 40.6445 29.8472 40.7129C29.6923 40.791 27.5818 40.8203 22.5863 40.8203C17.1648 40.8203 15.49 40.791 15.2963 40.6934C15.1705 40.625 14.9865 40.4102 14.8897 40.2051C14.7251 39.8535 14.7251 39.834 14.9091 39.4824C15.0156 39.2871 15.1995 39.0625 15.3254 38.9941C15.4996 38.8965 16.9809 38.8672 22.5863 38.8672ZM4.79221 3.61328C5.01488 3.61328 5.22786 3.69141 5.40212 3.84766C5.54734 3.97461 6.16694 4.62891 6.77686 5.3125C7.39646 5.99609 7.93861 6.5332 7.99669 6.52344C8.0451 6.50391 8.63566 5.89844 9.30366 5.17578C10.1459 4.25781 10.6106 3.83789 10.8042 3.78906C10.9882 3.74023 11.2012 3.7793 11.4238 3.88672C11.6175 3.97461 11.8208 4.16992 11.8885 4.31641C11.9563 4.48242 11.9854 4.7168 11.9466 4.90234C11.8982 5.12695 11.511 5.625 9.29398 8.00781L9.71027 8.48633C9.93294 8.75 10.4945 9.375 10.9591 9.87305C11.4142 10.3809 11.8401 10.8984 11.9079 11.0352C11.9757 11.1719 12.0047 11.416 11.9757 11.5918C11.937 11.7773 11.8014 11.9922 11.6465 12.1094C11.5013 12.2168 11.2302 12.3047 11.0366 12.3047C10.8527 12.3047 10.5913 12.2266 10.4557 12.1191C10.3299 12.0117 9.73932 11.3965 9.14876 10.752C8.56789 10.0977 8.0451 9.57031 7.98701 9.57031C7.93861 9.56055 7.32869 10.1855 6.63164 10.9473C5.94427 11.709 5.26659 12.3633 5.13105 12.4219C5.00519 12.4707 4.75348 12.4902 4.57922 12.4512C4.39528 12.4219 4.18229 12.2949 4.06612 12.1289C3.94994 11.9727 3.87249 11.7188 3.87249 11.4941C3.87249 11.1719 3.97898 11.0156 4.77285 10.1367C5.26659 9.59961 5.87651 8.91602 6.12822 8.62305C6.37993 8.33984 6.58323 8.08594 6.58323 8.05664C6.58323 8.02734 6.42834 7.8125 6.22503 7.57812C6.02172 7.35352 5.41181 6.66992 4.86966 6.06445C3.94026 5.04883 3.88217 4.95117 3.88217 4.58008C3.89185 4.27734 3.95962 4.11133 4.16293 3.89648C4.36623 3.68164 4.53081 3.61328 4.79221 3.61328Z" fill="white"/>
</svg>
