<svg width="50" height="50" viewBox="0 0 50 50" fill="none" xmlns="http://www.w3.org/2000/svg">
<path fill-rule="evenodd" clip-rule="evenodd" d="M24.8535 0.00106119C25.957 -0.00870613 27.2168 0.0498978 27.959 0.137804C28.6426 0.215942 29.6289 0.37222 30.1465 0.489427C30.6738 0.596868 31.5039 0.801982 31.9824 0.938724C32.4609 1.07547 33.3691 1.37825 33.9844 1.62244C34.5996 1.85685 35.6152 2.30615 36.2305 2.6187C36.8457 2.93126 37.7246 3.41963 38.1836 3.70288C38.6426 3.98613 39.4922 4.58194 40.0879 5.02147C40.6836 5.461 41.6602 6.30099 42.2754 6.88703C42.8906 7.47306 43.7012 8.32282 44.082 8.78189C44.4629 9.24095 44.9707 9.87583 45.2148 10.1981C45.4492 10.5205 45.8984 11.1749 46.2012 11.6632C46.5039 12.1516 47.0215 13.0697 47.3438 13.7144C47.6758 14.359 48.1348 15.3944 48.3691 16.0097C48.6133 16.625 48.916 17.5334 49.0527 18.012C49.1895 18.4906 49.3945 19.3208 49.502 19.8483C49.6191 20.3659 49.7754 21.3524 49.8535 22.0361C49.9316 22.7296 50 24.058 50 24.9956C50 25.9333 49.9316 27.2617 49.8535 27.9551C49.7754 28.6389 49.6191 29.6254 49.502 30.143C49.3945 30.6705 49.1895 31.5007 49.0527 31.9793C48.916 32.4579 48.6133 33.3662 48.3691 33.9816C48.1348 34.5969 47.6758 35.6323 47.3438 36.2769C47.0215 36.9216 46.5039 37.8494 46.2012 38.328C45.8984 38.8066 45.4492 39.4708 45.2148 39.7931C44.9707 40.1155 44.4629 40.7503 44.082 41.2094C43.7012 41.6685 42.9492 42.4596 42.4219 42.9675C41.8848 43.4852 41.084 44.1982 40.625 44.5694C40.166 44.9405 39.375 45.5168 38.8672 45.8489C38.3594 46.181 37.5 46.6986 36.9629 46.9917C36.4258 47.2847 35.6836 47.6656 35.3027 47.8317C34.9219 47.9977 34.2188 48.281 33.7402 48.4665C33.2617 48.6521 32.4609 48.9158 31.9824 49.0526C31.5039 49.1893 30.6738 49.3944 30.1465 49.5019C29.6289 49.6191 28.6426 49.7753 27.959 49.8535C27.2656 49.9316 25.9375 50 25 50C24.0625 50 22.7344 49.9316 22.041 49.8535C21.3574 49.7753 20.3711 49.6191 19.8535 49.5019C19.3262 49.3944 18.4961 49.1893 18.0176 49.0526C17.5391 48.9158 16.7383 48.6521 16.2598 48.4665C15.7812 48.281 15.0684 47.9977 14.6973 47.8317C14.3262 47.6656 13.5742 47.2847 13.0371 46.9917C12.5 46.6986 11.6406 46.181 11.1328 45.8489C10.625 45.5168 9.83398 44.9405 9.375 44.5694C8.91602 44.1982 8.11523 43.4852 7.57812 42.9675C7.05078 42.4596 6.29883 41.6685 5.91797 41.2094C5.53711 40.7503 5.0293 40.1155 4.78516 39.7931C4.55078 39.4708 4.10156 38.8066 3.79883 38.328C3.49609 37.8494 2.97852 36.9216 2.65625 36.2769C2.32422 35.6323 1.86523 34.5969 1.63086 33.9816C1.38672 33.3662 1.08398 32.4579 0.947266 31.9793C0.810547 31.5007 0.605469 30.6705 0.498047 30.143C0.380859 29.6254 0.224609 28.6389 0.146484 27.9551C0.0683594 27.2617 0 25.9333 0 24.9956C0 24.058 0.0683594 22.7296 0.146484 22.0361C0.224609 21.3524 0.380859 20.3659 0.498047 19.8483C0.605469 19.3208 0.810547 18.4906 0.947266 18.012C1.08398 17.5334 1.38672 16.625 1.63086 16.0097C1.86523 15.3944 2.31445 14.3786 2.62695 13.7632C2.93945 13.1479 3.42773 12.2688 3.71094 11.8098C3.99414 11.3507 4.59961 10.4716 5.05859 9.85629C5.53711 9.22142 6.51367 8.11771 7.31445 7.30702C8.125 6.5061 9.22852 5.52937 9.86328 5.05077C10.4785 4.5917 11.3574 3.98613 11.8164 3.70288C12.2754 3.41963 13.1543 2.93126 13.7695 2.6187C14.3848 2.30615 15.4004 1.85685 16.0156 1.62244C16.6309 1.37825 17.5391 1.07547 18.0176 0.938724C18.4961 0.801982 19.3359 0.596868 19.873 0.47966C20.4102 0.37222 21.3281 0.215942 21.9238 0.147571C22.5195 0.0694325 23.8379 0.0108285 24.8535 0.00106119ZM21.582 5.02147C21.0742 5.10937 20.2539 5.28518 19.7754 5.41216C19.2969 5.53913 18.5449 5.77355 18.1152 5.92983C17.6855 6.09587 16.8945 6.42796 16.3574 6.68191C15.8203 6.93586 14.9805 7.38516 14.502 7.67818C14.0234 7.98097 13.1836 8.55724 12.6465 8.96747C12.1094 9.37769 11.2305 10.1493 10.6934 10.6865C10.1562 11.2237 9.38477 12.1028 8.97461 12.64C8.56445 13.1772 7.98828 14.0172 7.68555 14.4958C7.39258 14.9744 6.94336 15.8144 6.68945 16.3516C6.43555 16.8888 6.08398 17.7288 5.9082 18.2074C5.73242 18.686 5.47852 19.5455 5.3418 20.112C5.20508 20.6785 5.01953 21.6162 4.93164 22.212C4.83398 22.8761 4.77539 23.9408 4.77539 24.9956C4.77539 26.0505 4.83398 27.1152 4.93164 27.7793C5.01953 28.3751 5.20508 29.3128 5.3418 29.8793C5.47852 30.4458 5.73242 31.3053 5.9082 31.7839C6.08398 32.2625 6.43555 33.1025 6.68945 33.6397C6.94336 34.1769 7.39258 35.0169 7.68555 35.4955C7.98828 35.9741 8.56445 36.8141 8.97461 37.3513C9.38477 37.8885 10.1562 38.7676 10.6934 39.3048C11.2305 39.842 12.1094 40.6136 12.6465 41.0238C13.1836 41.4341 14.0234 42.0103 14.502 42.3131C14.9805 42.6061 15.8203 43.0554 16.3574 43.3094C16.8945 43.5633 17.7344 43.915 18.2129 44.0908C18.6914 44.2666 19.5508 44.5205 20.1172 44.6573C20.6836 44.794 21.6211 44.9796 22.2168 45.0675C22.8809 45.1652 23.9453 45.2238 25 45.2238C26.0547 45.2238 27.1191 45.1652 27.7832 45.0675C28.3789 44.9796 29.3164 44.794 29.8828 44.6573C30.4492 44.5205 31.3086 44.2666 31.7871 44.0908C32.2656 43.915 33.1055 43.5633 33.6426 43.3094C34.1797 43.0554 35.0195 42.6061 35.498 42.3131C35.9766 42.0103 36.8164 41.4341 37.3535 41.0238C37.8906 40.6136 38.7695 39.842 39.3066 39.3048C39.8438 38.7676 40.6152 37.8885 41.0254 37.3513C41.4355 36.8141 42.0117 35.9741 42.3145 35.4955C42.6074 35.0169 43.0566 34.1769 43.3105 33.6397C43.5645 33.1025 43.916 32.2625 44.0918 31.7839C44.2676 31.3053 44.5215 30.4458 44.6582 29.8793C44.7949 29.3128 44.9805 28.3751 45.0684 27.7793C45.166 27.1152 45.2246 26.0505 45.2246 24.9956C45.2246 23.9408 45.166 22.8761 45.0684 22.212C44.9805 21.6162 44.7949 20.6785 44.6582 20.112C44.5215 19.5455 44.2676 18.686 44.0918 18.2074C43.916 17.7288 43.5645 16.8888 43.3105 16.3516C43.0566 15.8144 42.6074 14.9744 42.3145 14.4958C42.0117 14.0172 41.4355 13.1772 41.0254 12.64C40.6152 12.1028 39.8438 11.2237 39.3066 10.6865C38.7695 10.1493 37.8906 9.37769 37.3535 8.96747C36.8164 8.55724 35.9766 7.98097 35.498 7.67818C35.0195 7.38516 34.1797 6.93586 33.6426 6.68191C33.1055 6.42796 32.2656 6.07634 31.7871 5.90053C31.3086 5.72471 30.4492 5.47076 29.8828 5.33402C29.3164 5.19728 28.3789 5.0117 27.7832 4.93356C27.1875 4.85542 26.3086 4.76752 25.8301 4.75775C25.3516 4.73821 24.4043 4.75775 23.7305 4.78705C23.0566 4.82612 22.0898 4.92379 21.582 5.02147ZM24.9512 10.9405C25.332 10.9307 25.8691 10.9991 26.1719 11.087C26.4648 11.1749 26.8164 11.3214 26.9531 11.3995C27.0898 11.4874 27.3242 11.6632 27.4707 11.8C27.627 11.9367 27.8516 12.2298 27.959 12.4446C28.1738 12.8353 28.1738 12.8353 28.1738 20.2585C28.1738 25.8356 28.1445 27.7696 28.0566 28.0235C27.9883 28.2091 27.7734 28.5314 27.5684 28.7463C27.3633 28.9514 26.9531 29.2444 26.6602 29.3812C26.1719 29.6156 26.0156 29.6351 24.9512 29.6351C23.8379 29.6351 23.75 29.6156 23.2031 29.3421C22.8906 29.1858 22.5195 28.9123 22.3828 28.7561C22.2461 28.5998 22.0703 28.3068 21.9824 28.1212C21.8457 27.8184 21.8262 26.9491 21.8262 20.3073C21.8262 12.8842 21.8262 12.8353 22.0312 12.4446C22.1484 12.2298 22.4121 11.9074 22.6172 11.7219C22.832 11.5363 23.1543 11.3214 23.3398 11.2433C23.5254 11.1651 23.8086 11.0674 23.9746 11.0284C24.1309 10.9795 24.5703 10.9502 24.9512 10.9405ZM25 32.8095C25.5762 32.8095 25.8398 32.8681 26.2695 33.0635C26.5625 33.2002 26.9727 33.4737 27.1777 33.669C27.3828 33.8644 27.6758 34.2551 27.8125 34.5188C28.0469 34.9486 28.0762 35.1146 28.0762 35.9351C28.0762 36.7457 28.0469 36.9216 27.8223 37.3513C27.6758 37.6248 27.373 38.0155 27.1387 38.2401C26.9043 38.455 26.4551 38.7285 26.1426 38.8457C25.8008 38.9825 25.3613 39.0606 25 39.0606C24.6387 39.0606 24.1992 38.9825 23.8477 38.8555C23.4668 38.709 23.1348 38.4843 22.793 38.1425C22.4512 37.8006 22.2266 37.4685 22.0703 37.0583C21.8945 36.5895 21.8652 36.3355 21.8945 35.7397C21.9336 35.2025 22.0117 34.8802 22.1875 34.5188C22.334 34.2551 22.6172 33.8644 22.8223 33.669C23.0273 33.4737 23.4375 33.2002 23.7305 33.0635C24.1602 32.8681 24.4238 32.8095 25 32.8095Z" fill="white"/>
</svg>
